<svg xmlns="http://www.w3.org/2000/svg" viewBox="0 0 291.49 501.26"><defs><style>.cls-1{fill:#f89728;}.cls-2{fill:#fbb162;}</style></defs><title>Asset 2</title><g id="Layer_2" data-name="Layer 2"><g id="Outline_Base" data-name="Outline Base"><polygon class="cls-1" points="27.65 0 162.94 34.47 133.79 170.83 278.79 398.61 280.28 401.6 280.28 411.35 281.03 414.34 281.78 418.09 283.27 421.08 285.51 424.08 286.26 426.33 287.75 428.58 290 430.08 291.49 433.07 291.49 434.57 290 436.07 284.02 439.07 276.54 440.57 273.56 445.81 270.56 451.81 268.32 461.55 266.83 474.28 263.84 481.03 259.35 483.27 259.35 484.77 259.35 487.02 263.84 488.52 266.08 491.52 266.08 494.51 263.09 496.01 257.11 501.26 254.12 501.26 254.12 496.76 254.12 496.01 156.96 484.77 156.96 479.53 158.45 475.03 156.21 455.55 151.73 445.06 145.75 439.82 145.75 437.57 145 428.58 139.77 425.58 133.04 418.09 129.3 416.59 129.3 415.09 129.3 412.84 121.83 407.6 108.38 395.61 105.39 392.61 99.41 390.37 79.97 372.38 77.73 370.13 71 366.39 65.77 366.39 62.04 364.14 59.79 360.39 57.55 355.15 59.05 350.65 65.03 342.41 63.53 335.67 62.04 328.93 59.05 322.18 46.34 305.7 43.35 301.95 43.35 292.96 40.36 288.47 37.37 286.22 34.38 283.22 34.38 280.97 34.38 274.98 32.89 271.23 30.64 265.99 29.9 262.99 29.9 259.99 30.64 256.25 32.14 254.75 41.11 253.25 45.59 250.25 45.59 248.75 39.61 244.26 35.13 236.77 32.14 230.02 30.64 223.28 30.64 213.54 29.15 206.8 29.15 204.55 30.64 201.55 34.38 203.8 38.87 206.8 40.36 209.79 42.6 210.54 44.84 210.54 46.34 210.54 46.34 204.55 46.34 201.55 46.34 200.05 43.35 197.06 41.85 192.56 41.85 189.56 41.85 188.81 46.34 189.56 50.82 192.56 50.82 188.81 50.82 187.31 49.33 182.82 44.1 179.82 40.36 177.57 35.13 176.08 33.63 176.08 32.89 176.08 32.89 179.07 33.63 181.32 33.63 184.32 34.38 188.81 32.89 189.56 29.9 192.56 26.91 192.56 23.92 190.31 20.93 188.81 20.93 185.07 20.93 183.57 17.94 179.07 16.44 178.32 14.95 175.33 14.95 170.08 14.95 167.09 16.44 167.09 19.43 165.59 20.18 161.09 16.44 154.35 12.71 150.6 11.96 147.6 11.96 143.11 9.72 135.62 7.47 129.62 5.23 124.38 5.23 113.89 8.22 104.9 8.97 96.66 10.46 93.66 8.97 87.66 4.48 80.92 2.99 77.92 2.99 73.43 0 68.93 0 66.68 0 61.44 2.99 48.7 5.23 43.46 6.73 40.46 8.22 40.46 9.72 43.46 10.46 47.2 11.21 48.7 14.2 48.7 15.7 48.7 17.19 44.21 20.18 30.72 23.92 17.98 26.91 4.5 27.65 0 27.65 0"/><path class="cls-2" d="M133.79,170.83,162.94,34.47,27.65,0l-.74,4.5L23.92,18,20.18,30.72l-3,13.49L15.7,48.73H11.21l-.75-1.53-.74-3.74-1.5-2.73H7.06l-1.5,3L3.31,49l-3,12.74V69.2l3,4.5v4.22l1.17,3L9,87.66l1.49,6L9,96.65l-.75,8.25-2.91,9V125l2.33,5.25,2.33,6,2.34,7.5v4.49l.77,3L17,155l3.89,6.75-.78,4.49L17,167.73H15.31v8.09l1.5,2.94,1.5.74,3,4.41v5.15l3,1.47,3,2.2H29.9l3-3.17,1.49-.75-1.07-4.49v-3l-1-2.25v-2.34h3.25l5.25,1.5,3.75,2.25,5.25,3,1.5,4.49v5.25l-4.5-3-4.5-.75v3.09l1,4.5,3,3v10.68H42.6l-2.24-.94-1.49-3-4.49-3-3.74-2.25-1.33,3v2.25l1,6.74v9.7l1.5,6.76,3,6.77,4.5,7.52,6,4.51v1.36l-4.57,3.05-9.15,1.53-1.52,1.53-.76,3.82V263l1.33,3,2.25,5.24L34.31,275v8.58l3,3,3,2.25,3,4.49v9l.14.18.36-.25c7.52-9.18,19.27-20.37,36-25,30.44-8.41,49.95,12.52,74,6,10.12-2.74,21.67-10.54,32.28-30.24Z"/></g></g></svg>