<?xml version="1.0" encoding="utf-8"?>
<!-- Generator: Adobe Illustrator 16.0.0, SVG Export Plug-In . SVG Version: 6.00 Build 0)  -->
<!DOCTYPE svg PUBLIC "-//W3C//DTD SVG 1.1//EN" "http://www.w3.org/Graphics/SVG/1.1/DTD/svg11.dtd">
<svg version="1.1" id="Layer_1" xmlns="http://www.w3.org/2000/svg" xmlns:xlink="http://www.w3.org/1999/xlink" x="0px" y="0px"
	 width="1400px" height="980px" viewBox="0 0 1400 980" enable-background="new 0 0 1400 980" xml:space="preserve">
<g>
	<rect x="0.001" fill="#00A8E5" width="1399.998" height="980"/>
	<linearGradient id="SVGID_1_" gradientUnits="userSpaceOnUse" x1="848.6846" y1="385.9614" x2="761.9639" y2="931.0616">
		<stop  offset="0" style="stop-color:#00A8E5"/>
		<stop  offset="0.1257" style="stop-color:#00A6E2"/>
		<stop  offset="0.2656" style="stop-color:#00A0DB"/>
		<stop  offset="0.4126" style="stop-color:#0095CF"/>
		<stop  offset="0.5643" style="stop-color:#1585C0"/>
		<stop  offset="0.7197" style="stop-color:#3D72AE"/>
		<stop  offset="0.8759" style="stop-color:#525A9B"/>
		<stop  offset="1" style="stop-color:#5E408B"/>
	</linearGradient>
	<polygon fill="url(#SVGID_1_)" points="108.359,980 1399.999,980 1399.999,718.594 285.117,522.01 	"/>
	<linearGradient id="SVGID_2_" gradientUnits="userSpaceOnUse" x1="966.2402" y1="204.2568" x2="1058.1425" y2="-172.778">
		<stop  offset="0" style="stop-color:#00A8E5"/>
		<stop  offset="0.1257" style="stop-color:#00A6E2"/>
		<stop  offset="0.2656" style="stop-color:#00A0DB"/>
		<stop  offset="0.4126" style="stop-color:#0095CF"/>
		<stop  offset="0.5643" style="stop-color:#1585C0"/>
		<stop  offset="0.7197" style="stop-color:#3D72AE"/>
		<stop  offset="0.8759" style="stop-color:#525A9B"/>
		<stop  offset="1" style="stop-color:#5E408B"/>
	</linearGradient>
	<polygon fill="url(#SVGID_2_)" points="1399.999,141.491 1399.999,0 597.566,0 	"/>
	<g>
		<path fill="#452A67" d="M813.515,342.392c-0.145,0-0.29-0.012-0.438-0.038l-217.591-38.366c-1.36-0.24-2.268-1.537-2.028-2.896
			s1.535-2.266,2.896-2.027l217.592,38.366c1.359,0.239,2.268,1.536,2.027,2.896C815.76,341.538,814.705,342.392,813.515,342.392z"
			/>
	</g>
	<path fill="#452A67" d="M469.859,0H350.73c-76.501,90.813,2.102,264.72,71.686,278.055c73.057,14,158.443,10,209.943-57
		c65.213-84.84-65-198.5-118-77c-22.862,52.411-90.5,27.5-103.562-13.453C396.241,84.959,421.359,33.555,469.859,0z"/>
	<path fill="#5E408B" d="M0.001,0v423.055c79.358,58,165.18,29.474,186.522-34.938c30.835-93.062,140.061-97.112,191.8-15.062
		c135.237,214.466,381.942-26.104,254.036-152c-35,38-165,82-250-9c-45.871-49.108-48.332-159,28.626-212.055H0.001z"/>
	<radialGradient id="SVGID_3_" cx="326.9688" cy="251.6563" r="426.0018" gradientUnits="userSpaceOnUse">
		<stop  offset="0.0913" style="stop-color:#00A8E5"/>
		<stop  offset="0.2023" style="stop-color:#0093CE"/>
		<stop  offset="0.3451" style="stop-color:#2F7BB7"/>
		<stop  offset="0.487" style="stop-color:#4768A6"/>
		<stop  offset="0.6254" style="stop-color:#53589A"/>
		<stop  offset="0.7592" style="stop-color:#5A4B91"/>
		<stop  offset="0.8864" style="stop-color:#5D438C"/>
		<stop  offset="1" style="stop-color:#5E408B"/>
	</radialGradient>
	<path fill="url(#SVGID_3_)" d="M0.001,361.976C77.027,329.942,226.601,216.036,187.446,0H0.001V361.976z"/>
	<path fill="#FFFCDD" d="M1399.999,312.486c-196.419,76.602-254.718-91.317-197.3-143.325
		c-167.766-49.498-305.76,140.993-116.769,338.983c101.341,106.167,56.997,251.352-112.509,251.352
		c-159.91,0-184.477-165.856-64.482-201.854c0-164.991-223.489-152.992-223.489,0c0,188.991-253.536,334.531-386.981,201.854
		c-116.11-115.441,70.89-228.441-21.092-238.726C152.352,506.792,61.21,566.474,0.001,634.014V980h1399.998V312.486z"/>
	<radialGradient id="SVGID_4_" cx="1187.3594" cy="663.0557" r="648.0038" gradientUnits="userSpaceOnUse">
		<stop  offset="0.3587" style="stop-color:#00A8E5"/>
		<stop  offset="0.3887" style="stop-color:#0098D2"/>
		<stop  offset="0.4303" style="stop-color:#1984BF"/>
		<stop  offset="0.476" style="stop-color:#3B73AF"/>
		<stop  offset="0.5255" style="stop-color:#4A65A4"/>
		<stop  offset="0.5798" style="stop-color:#53599A"/>
		<stop  offset="0.6412" style="stop-color:#584E93"/>
		<stop  offset="0.7135" style="stop-color:#5C468E"/>
		<stop  offset="0.8071" style="stop-color:#5E418C"/>
		<stop  offset="1" style="stop-color:#5E408B"/>
	</radialGradient>
	<path fill="url(#SVGID_4_)" d="M1202.699,169.161c-154.68-45.637-284.051,112.737-155.164,292.902
		c84.078-76.642,218.108-84.076,352.464,18.238V312.486C1203.58,389.088,1145.281,221.169,1202.699,169.161z"/>
	<path opacity="0.3" fill="#FFFCDD" d="M1399.999,199.518c-157.949,57.011-183.575,259.218-183.575,259.218l183.575,41.889V199.518z
		"/>
	<path opacity="0.3" fill="#FFFCDD" d="M1399.999,479.693c-197.3-150.247-393.902-63.834-432.64,130.877
		c-71,356.877-486,368.822-532,88.877c-44.856-272.985,392.584-85.416,115.098-311.905
		C333.399,210.376,92.484,236.039,0.001,255.618v723.774h1399.998V479.693z"/>
	
		<radialGradient id="SVGID_5_" cx="613.4546" cy="386.6499" r="440.9883" gradientTransform="matrix(1 0 0 1.4289 0 -165.8497)" gradientUnits="userSpaceOnUse">
		<stop  offset="0.3077" style="stop-color:#FFFCDD"/>
		<stop  offset="0.4937" style="stop-color:#FDFADD"/>
		<stop  offset="0.5937" style="stop-color:#F4F5DD"/>
		<stop  offset="0.6733" style="stop-color:#E6EEDD"/>
		<stop  offset="0.7422" style="stop-color:#D2E5DE"/>
		<stop  offset="0.8041" style="stop-color:#B8DBDF"/>
		<stop  offset="0.861" style="stop-color:#97CEE0"/>
		<stop  offset="0.9141" style="stop-color:#6DC1E1"/>
		<stop  offset="0.9628" style="stop-color:#1EB3E2"/>
		<stop  offset="1" style="stop-color:#00A8E5"/>
	</radialGradient>
	<path fill="url(#SVGID_5_)" d="M477.248,804.324c97.434,135.338,324.711,123.42,436.298-54.008
		c-104.092-35.285-107.57-161.786-4.606-192.675c0-164.991-223.489-152.992-223.489,0
		C685.451,676.611,584.982,778.354,477.248,804.324z"/>
	<path fill="#452A67" d="M1399.999,980V400.039c-105.231,5.257-111.11,76.785-99.579,170.575
		c21.939,178.44-112.061,353.44-317.984,325.299c-57.331-7.835-102.076,17.142-137.161,84.087H1399.999z"/>
	<g>
		<path fill="#452A67" d="M602.813,492.5c-0.144,0-0.29-0.012-0.437-0.038L92.181,402.501c-1.36-0.24-2.268-1.536-2.028-2.896
			c0.24-1.359,1.535-2.264,2.896-2.027l510.195,89.961c1.36,0.24,2.268,1.536,2.028,2.896
			C605.058,491.647,604.003,492.5,602.813,492.5z"/>
	</g>
	<g opacity="0.3">
		<path fill="#FFFCDD" d="M1101.858,358.188c-0.145,0-0.29-0.014-0.438-0.039L495.087,251.237c-1.36-0.24-2.268-1.537-2.028-2.896
			s1.536-2.266,2.896-2.027l606.334,106.912c1.359,0.24,2.268,1.536,2.027,2.896
			C1104.104,357.335,1103.049,358.188,1101.858,358.188z"/>
	</g>
	<g opacity="0.3">
		<path fill="#FFFCDD" d="M369.208,467.315c-0.144,0-0.29-0.014-0.437-0.039l-247.197-43.588c-1.36-0.239-2.268-1.535-2.028-2.896
			c0.24-1.359,1.537-2.264,2.896-2.028l247.197,43.588c1.36,0.24,2.268,1.536,2.028,2.896
			C371.454,466.462,370.399,467.315,369.208,467.315z"/>
	</g>
	<g>
		<path fill="#452A67" d="M1086.089,577.714c-0.145,0-0.29-0.012-0.438-0.038l-273.354-48.199c-1.359-0.239-2.268-1.536-2.027-2.896
			c0.239-1.359,1.535-2.268,2.896-2.027l273.354,48.199c1.359,0.239,2.268,1.536,2.027,2.896
			C1088.334,576.86,1087.279,577.714,1086.089,577.714z"/>
	</g>
	<path fill="#00A8E5" d="M1399.999,603.409l-364.707-64.307c-1.359-0.24-2.656,0.668-2.896,2.027
		c-0.24,1.36,0.668,2.657,2.027,2.896l365.576,64.46V603.409z"/>
	<g>
		<path fill="#5E408B" d="M1050.855,511.759c-0.145,0-0.29-0.012-0.438-0.038l-109.227-19.259c-1.359-0.24-2.268-1.537-2.027-2.896
			s1.538-2.267,2.896-2.027l109.227,19.259c1.359,0.239,2.268,1.536,2.027,2.896
			C1053.101,510.905,1052.046,511.759,1050.855,511.759z"/>
	</g>
	<path fill="#00A8E5" d="M475.113,413.194L0.001,329.421v5.076l474.244,83.621c0.147,0.025,0.293,0.039,0.437,0.039
		c1.19,0,2.245-0.854,2.459-2.066C477.38,414.73,476.473,413.435,475.113,413.194z"/>
	<g>
		<path fill="#452A67" d="M1072.97,336.228c-0.145,0-0.29-0.012-0.438-0.038l-147.033-25.926c-1.359-0.239-2.268-1.536-2.027-2.896
			c0.239-1.36,1.535-2.264,2.896-2.028l147.033,25.926c1.359,0.239,2.268,1.536,2.027,2.896
			C1075.215,335.374,1074.16,336.228,1072.97,336.228z"/>
	</g>
	<g>
		<path fill="#FFFCDD" d="M300.544,411.74c-0.144,0-0.29-0.013-0.437-0.038l-154.805-27.297c-1.36-0.239-2.268-1.535-2.028-2.896
			c0.24-1.359,1.535-2.264,2.896-2.028l154.805,27.297c1.36,0.239,2.268,1.535,2.028,2.896
			C302.79,410.887,301.735,411.74,300.544,411.74z"/>
	</g>
	<g>
		<path fill="#FFFCDD" d="M758.103,354.833c-0.145,0-0.29-0.014-0.438-0.039l-208.188-36.709c-1.36-0.24-2.268-1.536-2.028-2.896
			c0.24-1.359,1.539-2.264,2.896-2.027l208.189,36.709c1.359,0.24,2.268,1.536,2.027,2.896
			C760.348,353.979,759.293,354.833,758.103,354.833z"/>
	</g>
	<g>
		<path fill="#5E408B" d="M959.767,280.452c-0.145,0-0.289-0.013-0.436-0.039l-147.033-25.926c-0.944-0.166-1.71-0.858-1.971-1.781
			c-0.262-0.923,0.028-1.914,0.746-2.551l59.175-52.508c0.95-0.842,2.378-0.839,3.324,0.005l87.858,78.434
			c0.833,0.744,1.072,1.951,0.584,2.956C961.592,279.915,960.711,280.452,959.767,280.452z M818.262,250.462l133.282,23.502
			l-79.642-71.1L818.262,250.462z"/>
	</g>
	<g>
		<path fill="#5E408B" d="M730.225,692.52c-0.528,0-1.053-0.167-1.492-0.494l-116.083-86.396c-0.93-0.692-1.262-1.932-0.803-2.996
			c0.458-1.063,1.592-1.67,2.729-1.472l116.083,20.469c1.194,0.211,2.065,1.249,2.065,2.462v65.928c0,0.945-0.533,1.81-1.378,2.234
			C730.992,692.432,730.607,692.52,730.225,692.52z M624.099,607.917l103.626,77.125v-58.853L624.099,607.917z"/>
	</g>
	<g>
		<path fill="#FFFCDD" d="M527.854,409.989c-0.144,0-0.29-0.012-0.436-0.037l-117.551-20.728c-0.928-0.163-1.685-0.835-1.958-1.735
			c-0.274-0.902-0.018-1.881,0.663-2.532l33.456-32.042c0.827-0.793,2.087-0.921,3.058-0.312l84.095,52.769
			c1.013,0.636,1.434,1.9,1.004,3.016C529.81,409.366,528.873,409.989,527.854,409.989z M415.593,385.157l100.091,17.648
			l-71.604-44.932L415.593,385.157z"/>
	</g>
	<g>
		<path fill="#FFFCDD" d="M1039.873,413.845c-0.145,0-0.29-0.014-0.435-0.039l-117.551-20.727c-1.164-0.205-2.026-1.199-2.064-2.382
			s0.758-2.229,1.907-2.509l117.551-28.641c0.744-0.183,1.533-0.011,2.136,0.463c0.604,0.474,0.956,1.198,0.956,1.965v49.369
			c0,0.738-0.327,1.439-0.893,1.914C1041.026,413.64,1040.456,413.845,1039.873,413.845z M934.494,390.224l102.879,18.141v-43.206
			L934.494,390.224z"/>
	</g>
	<g>
		<path fill="#00A8E5" d="M1217.451,443.292c-0.598,0-1.178-0.214-1.634-0.607l-94.365-81.506c-0.852-0.736-1.107-1.949-0.624-2.965
			c0.482-1.018,1.579-1.588,2.692-1.39l138.551,24.43c0.862,0.151,1.582,0.744,1.897,1.562c0.315,0.816,0.181,1.738-0.355,2.431
			l-44.186,57.076c-0.42,0.543-1.045,0.889-1.728,0.957C1217.617,443.288,1217.534,443.292,1217.451,443.292z M1131.585,363.323
			l85.504,73.853l40.037-51.717L1131.585,363.323z"/>
	</g>
	<g opacity="0.3">
		<path fill="#FFFCDD" d="M92.615,304.731c-0.421,0-0.841-0.106-1.217-0.316c-0.644-0.359-1.096-0.983-1.237-1.707L53.913,116.156
			c-0.157-0.809,0.094-1.642,0.671-2.229c0.577-0.587,1.406-0.852,2.217-0.709l361.034,63.658c1.108,0.195,1.95,1.107,2.055,2.229
			c0.105,1.121-0.552,2.173-1.604,2.572L93.5,304.569C93.214,304.678,92.914,304.731,92.615,304.731z M59.515,118.772
			l34.989,180.071l313.502-118.625L59.515,118.772z"/>
	</g>
	<g>
		<path fill="#00A8E5" d="M319.304,613.678c-0.637,0-1.273-0.242-1.758-0.723L154.767,451.967c-0.778-0.769-0.965-1.954-0.463-2.926
			s1.58-1.505,2.655-1.313l288.033,50.788c0.946,0.167,1.713,0.861,1.973,1.787c0.259,0.925-0.034,1.917-0.756,2.552l-125.255,110.2
			C320.481,613.471,319.892,613.678,319.304,613.678z M163.975,454.042L319.403,607.76l119.599-105.224L163.975,454.042z"/>
	</g>
	<path fill="#00A8E5" d="M1399.999,935.254l-325.457-321.877l325.457,57.387v-5.077l-332.473-58.624
		c-1.075-0.188-2.152,0.342-2.655,1.313c-0.502,0.972-0.314,2.157,0.463,2.926l334.665,330.984V935.254z"/>
	<g>
		<path fill="#00A8E5" d="M633.467,310.645c-0.144,0-0.29-0.013-0.437-0.038L514.469,289.7c-1.36-0.239-2.268-1.535-2.028-2.896
			c0.24-1.359,1.538-2.265,2.896-2.028l118.561,20.906c1.36,0.239,2.268,1.535,2.028,2.896
			C635.712,309.791,634.657,310.645,633.467,310.645z"/>
	</g>
</g>
</svg>
