<svg xmlns="http://www.w3.org/2000/svg" xmlns:xlink="http://www.w3.org/1999/xlink" viewBox="0 0 456.94 464.85"><defs><style>.cls-1{isolation:isolate;}.cls-2,.cls-3{fill:#0ff922;}.cls-2{stroke:#0ff922;stroke-width:8px;}.cls-10,.cls-17,.cls-2,.cls-20,.cls-29,.cls-30,.cls-31,.cls-5,.cls-9{stroke-miterlimit:10;}.cls-22,.cls-23,.cls-29,.cls-4{fill:#231f20;}.cls-12,.cls-13,.cls-5,.cls-6{fill:#717375;}.cls-10,.cls-13,.cls-29,.cls-30,.cls-31,.cls-5,.cls-8,.cls-9{stroke:#231f20;}.cls-10,.cls-13,.cls-5,.cls-8,.cls-9{stroke-width:5px;}.cls-6{opacity:0.53;}.cls-12,.cls-15,.cls-21,.cls-22,.cls-6{mix-blend-mode:multiply;}.cls-24,.cls-7{fill:#f5f5f5;}.cls-8{fill:#d98d8a;}.cls-13,.cls-8{stroke-linecap:round;stroke-linejoin:round;}.cls-11,.cls-18,.cls-27,.cls-30,.cls-31,.cls-9{fill:#fff;}.cls-10{fill:none;}.cls-11,.cls-23{opacity:0.14;}.cls-12{opacity:0.35;}.cls-14{fill:url(#radial-gradient);}.cls-15{fill:#6fbd43;}.cls-16,.cls-17,.cls-20{fill:#261c02;}.cls-17,.cls-20{stroke:#000;}.cls-17{stroke-width:1.74px;}.cls-19{fill:url(#radial-gradient-2);}.cls-20{stroke-width:1.4px;}.cls-21{fill:#6f1200;opacity:0.39;}.cls-22{opacity:0.4;}.cls-24{opacity:0.21;}.cls-25{fill:#00afef;}.cls-26{fill:#f89728;}.cls-27{opacity:0.25;}.cls-28{fill:url(#linear-gradient);}.cls-29,.cls-30{stroke-width:1.44px;}.cls-31{stroke-width:1.08px;}.cls-32{fill:#000500;}</style><radialGradient id="radial-gradient" cx="-1751.76" cy="-266.45" r="32" gradientTransform="matrix(-0.9, -0.23, 0.24, -1.29, -1363.96, -623.2)" gradientUnits="userSpaceOnUse"><stop offset="0.76" stop-color="#fff"/><stop offset="0.79" stop-color="#f8f8f8"/><stop offset="0.83" stop-color="#e5e5e6"/><stop offset="0.88" stop-color="#c6c6c8"/><stop offset="0.94" stop-color="#9b9b9e"/><stop offset="0.97" stop-color="#7d7e81"/></radialGradient><radialGradient id="radial-gradient-2" cx="3074.97" cy="278.26" r="29.32" gradientTransform="matrix(-0.69, -0.18, -0.16, 0.99, 2239.03, 405.44)" xlink:href="#radial-gradient"/><linearGradient id="linear-gradient" x1="216.92" y1="460.97" x2="216.92" y2="355.53" gradientUnits="userSpaceOnUse"><stop offset="0" stop-color="#fff"/><stop offset="1"/></linearGradient></defs><title>Whiteboard Warriors_logo</title><g class="cls-1"><g id="Layer_1" data-name="Layer 1"><path class="cls-2" d="M100,284.71a3.55,3.55,0,0,0-.22-.94L97,277a3.55,3.55,0,0,1,.25-2.62c1-1.66.37-4.15.27-4.49l-2-4.88h0l-27-67.4-.26-.67-.13,0c-.51-1.35-1.19-3.08-1.67-4s-1.71-2.8-2.78-4.44c-.65-1-1.38-2.12-1.48-2.32a.86.86,0,0,0-.88-.53,20.33,20.33,0,0,0-4.55,1.36v0l-2.12.86v0c-3,1.3-3.37,1.86-3.09,2.56.08.22.32,1.55.54,2.72.35,1.92.75,4.11,1,5.12a41.87,41.87,0,0,0,1.55,4.06l-.06,0,26.42,66h0l.19.48.36.9.26.67h0l2,4.94c.13.26,1.36,2.52,3.26,3a3.5,3.5,0,0,1,2,1.67h0l2.74,6.83c.1.27.68,1.57,1.79,1.57h0a1.32,1.32,0,0,0,.51-.1l.39-.16c1.57,2.53,5.37,7.91,4-1.6l.47-.18A1.51,1.51,0,0,0,100,284.71Z"/><path class="cls-3" d="M451.46,240.1c-.78-.58-2.74-2-11.23-3.61-1.84-3.73-5.86-9.69-12.68-9.69-4.43,0-8.58,3.72-12.93,11.64l-20.46-9.63-.62,3.42c-8.41-4.48-15.71-9-21.49-12.78,20.46-9,34.41-25.86,40.54-49.07a115.76,115.76,0,0,0,3.64-29.75c4.27-3.88,10.77-11.59,7.2-20.28A94.08,94.08,0,0,0,418,109.78c-1.33-2.32-3.55-6.2-3.77-7.42-2-12.43-9-31.45-22.75-47.53-11.31-13.25-31.23-29-61.94-29a99.4,99.4,0,0,0-18.28,1.76c-28.32,5.31-49.42,22.73-61,50.38a120.32,120.32,0,0,0-7.93,28.93c-.67-.67-1.33-1.26-1.91-1.77a16,16,0,0,1-2-2,155.71,155.71,0,0,0-2.16-15.57,129.61,129.61,0,0,0-16.12-42.2C208.2,25.62,185.6,1.73,145.51.1c-1.62-.07-3.26-.1-4.86-.1C100.71,0,77.71,20.62,65.44,37.91,50.71,58.69,45.23,83.36,45,98.23c0,1.34-1.89,6.1-3,9a102.62,102.62,0,0,0-4.28,12.38c-1.8,7.19,2.35,14.77,11.14,20.55a128,128,0,0,0,8.76,32.27c6.1,14.32,14.75,25.78,25.75,34.16-1.87,1.15-3.91,2.44-6.09,3.88-2-5.14-4.51-8.44-7.44-10a9.27,9.27,0,0,0-8.12-.41c-7.74,3.25-11.46,14.27-9.58,28.17-.75,4,0,9.93,2.15,18.59,1.48,5.79,4.65,16.17,6.89,19.39,1.7,2.46,4.52,3.7,8.37,3.7a34.93,34.93,0,0,0,6.94-.87,204,204,0,0,0-1.11,23.39l0,.05.06,2.3c0,.4,0,.8,0,1.19l0,.75c0,.72,0,1.43.08,2.15V299c0,.76.07,1.52.11,2.27.08,1.49.18,3,.29,4.4l0,.5c.23,2.9.53,5.79.88,8.59.09.74.19,1.46.29,2.19l.76,5.42H78a188.07,188.07,0,0,0,4.73,21.14H55.23c-6.9-16.2-18.79-18.76-25.61-18.76s-19.8,2.44-28,18.75L0,346.82l16.85,10.11,1-1.75L19,358a3,3,0,0,1-.59-.31,4.6,4.6,0,0,1,.59.69l-.13,0,.14,0a16.49,16.49,0,0,1,1.44,2.49,34.79,34.79,0,0,1,2.9,8.85,87,87,0,0,1,1,10.9c.07,1.39.1,2.53.1,3.41a54,54,0,0,1-3.65,19.89l-6.43,16.39H65.61l2.65,44.54h185v0c.42,0,.83,0,1.26,0h92.82a17.77,17.77,0,0,0,11.38-4A18.27,18.27,0,0,0,365,450.54l1.89-9.05a18.18,18.18,0,0,0,.37-2.37h.23l2.77-13.56a17.62,17.62,0,0,0,.37-5,27.8,27.8,0,0,0,5-.22h28.82l1.77-9.89c0-.25.09-.5.14-.75s.1-.49.14-.71l.38-1.95a197.34,197.34,0,0,1,14-44.27l7.77-17h-43.2l-2.39,8.9q-.69,2.55-1.36,5l-1.16,0a28.78,28.78,0,0,0-15.61,4.61c-5.45-3.63-10.61-5.4-15.73-5.4A28.27,28.27,0,0,0,341.2,360h-2.57a101.77,101.77,0,0,1,5.52-13.72c5.29-10.87,13.15-27,13.74-44.05a9,9,0,0,0,3-2.57c2.68-3.58,1.78-7.79,1.48-9.17s.18-6.5.37-8.43c.16-1.63.27-2.8.27-3.71a9.08,9.08,0,0,0-1.33-4.68c.88-1.54,1.64-2.88,2.52-4.55,4.45,1.34,9.3,2.57,14.48,3.68l-2.45,4,11,.56s4,.21,8.78.21a92.47,92.47,0,0,0,10.27-.46l.72.07.57,0a11.36,11.36,0,0,0,8.32-3.66l.33-.37a56.73,56.73,0,0,0,21,4,50,50,0,0,0,9.66-.9c2.65-.53,7.36-2.57,9.1-10.25C457.43,259.35,456.56,243.93,451.46,240.1ZM156.8,345.75l-.31,1.21a24.91,24.91,0,0,0-7.79-1.21,26.28,26.28,0,0,0-11.29,2.5l-.89.43,1.21-2.93h-11.4c-.15-2.77-.23-5.24-.26-7.21a91.52,91.52,0,0,1,17.85-1.94c12,0,21.44,3.07,28.09,9.15ZM277.05,203.07a88.62,88.62,0,0,0,10.71,9.11c-6.44,3.08-10.94,5.59-11.24,5.76-3.74,2.19-18.89,11.35-29.59,22.31l-1.29-4.07a33.93,33.93,0,0,0-6.93-13c7.22-7.75,18-12,28.42-16.06C270.42,205.82,273.81,204.5,277.05,203.07Zm10,56.9c-1-.64-2.11-1.29-3.31-2,.64-.43,1.32-.85,2-1.24C286.26,257.85,286.68,258.91,287.09,260Zm-36.95-95.68.2.11-2.79.4C248.39,164.66,249.26,164.48,250.14,164.29Zm-25.32-3c4.76,3.09,10.86,4.46,18.05,4.06.51,0,1-.06,1.53-.11-2.4.31-4.93.61-7.58.93-4.63.56-9.67,1.18-15.07,1.93C222.83,165.87,223.85,163.59,224.82,161.27Zm26.5,184.48H219c-1.7-12.65-4.25-26.42-7.62-41.15a15.25,15.25,0,0,0,9.64-8.51,11.69,11.69,0,0,0-.58-11.18,19.06,19.06,0,0,0,7.71-5.66,49.94,49.94,0,0,0,4-3.26l5.63-5.87c2.34,5.31,7.06,11.26,16.12,16.84l-1.51,4.77,8.49,2.52c-2.62,4.52-1.22,10.41,3.43,14.24A122.08,122.08,0,0,0,251.32,345.75ZM311.94,360a29.35,29.35,0,0,0-4.14-.29A28.81,28.81,0,0,0,292.58,364a26.55,26.55,0,0,0-15.37-4.36c-.36,0-.71,0-1.07,0,4.46-10.38,14.7-25.31,37.26-28.81L314.49,360Z"/><path class="cls-4" d="M115.55,377.3l113,10,98.5,5.5,32-4,4,13.5-6,14.5-13,15.5s-146.5,11.5-150,11.5-62.5.5-70-2.5-21.5-9-21.5-10.5-5.5-40-5.5-40"/><path class="cls-5" d="M178.31,231.45s-23.6-16.75-54.25,7.7c0,0,2.73-39.07,53.93-55s92.81-8.55,97.45-25S291,159,291,159s-5.09,27.61-27.09,36.27"/><path class="cls-5" d="M290.67,162.6s13.1,11.51-1.56,25.51-46.08,14.61-59.7,36.52-6.51,32.44-6.51,32.44a133.14,133.14,0,0,0-24.62,1.58c-11.89,1.86-32.46,5-35.46,23,0,0-12-34,18.16-66.22,31.16-33.22,63-26.09,82.82-34.88,14.51-6.44,19.41-27.28,19.41-27.28"/><path class="cls-4" d="M210.79,233s4-17.83,39.34-32.09S293.55,178,290.65,168l-2.84-1.5s4.45,8.41-11.93,18.48-42.16,18.3-48.19,23C219,214.83,215.34,219.91,210.79,233Z"/><path class="cls-4" d="M139,221.17s15.11-25.15,53.55-35.73,66.88-4.73,81.7-14l1.49-3.23s-6.85,3.6-26,6.8-54.37,4.36-74.54,13.73C149.87,200.53,139,221.17,139,221.17Z"/><path class="cls-6" d="M287.81,166.47s-2.1,5.94-13.31,14.82c-16.76,13.27-70.38,19.13-65.31,57.8A55.24,55.24,0,0,1,236,211.17c20.06-9.55,44.82-15.5,53.12-23.06a20.08,20.08,0,0,0,6.71-17.06"/><path class="cls-6" d="M162.25,224.68s27.06-39.39,78.81-43.91c0,0-73.59-1.78-104.89,44.75,0,0,12.91-34.16,47.28-44.5s65.08-4,87-15.84c1.25-.68,8.25-.9,8.25-.9a26.57,26.57,0,0,1-13.18,16c-10.64,5.44-69.18,6.68-92.47,44.67"/><path class="cls-4" d="M364.29,414.76a11.58,11.58,0,0,0-9.26-4.14H334.66a13.78,13.78,0,0,0-8.15,2.62,11.9,11.9,0,0,0-7.7-2.62H287.09l-.15.73a13.12,13.12,0,0,0-4.36-.73H262.21a13.33,13.33,0,0,0-1.56.1l0-.1H234.28l-.15.72a12.82,12.82,0,0,0-4.31-.72H198.11l-.16.73a13,13,0,0,0-4.35-.73H161.88l-.15.73a13.12,13.12,0,0,0-4.36-.73H118.49l-3.31,6.85-.39-6.85H69l3,50.23h42.65l.63-1.32-.28,1.32H250l.15-.73a13.12,13.12,0,0,0,4.36.73h20.37c.53,0,1.05,0,1.57-.09l0,.09H325l0-.17a13.47,13.47,0,0,0,2,.17h20.37a13.78,13.78,0,0,0,8.84-3.13,14.2,14.2,0,0,0,4.86-8l1.91-9.09a12.87,12.87,0,0,0,.09-5.51h1.14l2.13-10.42A11.53,11.53,0,0,0,364.29,414.76Z"/><path class="cls-7" d="M110.28,453.85H98.21l-.79-13.91L90.7,453.85H78.62l-2.15-36.23H88.55l1.57,27.2,6.77-14-.78-13.23h12.07l1.58,27.2,13.12-27.2h4.88Z"/><path class="cls-7" d="M155.38,453.85H143.3l2.42-11.34h-7.56l-2.42,11.34H123.67l6.46-30.56a7.19,7.19,0,0,1,2.46-4.12,6.76,6.76,0,0,1,4.41-1.55h20.37a4.58,4.58,0,0,1,3.81,1.55,4.71,4.71,0,0,1,.66,4.12Zm-12.92-31.71L139.1,438h7.56L150,422.14Z"/><path class="cls-7" d="M191.6,453.85H179.53l-1.74-11.34h-3.41L172,453.85H159.89l7.67-36.23h26a4.52,4.52,0,0,1,3.78,1.55,4.77,4.77,0,0,1,.63,4.12l-2.84,13.55a7.11,7.11,0,0,1-1.91,3.65,6.77,6.77,0,0,1-3.44,1.86Zm-12.91-31.71L175.33,438h7.51l3.36-15.85Z"/><path class="cls-7" d="M227.83,453.85H215.75L214,442.51h-3.41l-2.42,11.34H196.12l7.66-36.23h26a4.49,4.49,0,0,1,3.78,1.55,4.71,4.71,0,0,1,.63,4.12l-2.83,13.55a7.2,7.2,0,0,1-1.92,3.65,6.73,6.73,0,0,1-3.44,1.86Zm-12.92-31.71L211.55,438h7.51l3.36-15.85Z"/><path class="cls-7" d="M244.37,453.85H232.29L240,417.62H252Z"/><path class="cls-7" d="M281.8,448.18a7.22,7.22,0,0,1-2.47,4.12,6.76,6.76,0,0,1-4.41,1.55H254.55a4.58,4.58,0,0,1-3.81-1.55,4.67,4.67,0,0,1-.65-4.12l5.25-24.89a7.19,7.19,0,0,1,2.46-4.12,6.78,6.78,0,0,1,4.41-1.55h20.37a4.58,4.58,0,0,1,3.81,1.55,4.71,4.71,0,0,1,.66,4.12Zm-14.13-26-5.77,27.19h7.56l5.77-27.19Z"/><path class="cls-7" d="M316.81,453.85H304.74L303,442.51h-3.42l-2.41,11.34H285.1l7.67-36.23h26a4.52,4.52,0,0,1,3.78,1.55,4.77,4.77,0,0,1,.63,4.12l-2.84,13.55a7.11,7.11,0,0,1-1.91,3.65,6.73,6.73,0,0,1-3.44,1.86ZM303.9,422.14,300.54,438h7.51l3.36-15.85Z"/><path class="cls-7" d="M351.67,433.48a4.58,4.58,0,0,1,3.81,1.55,4.7,4.7,0,0,1,.66,4.12l-1.89,9a7.22,7.22,0,0,1-2.47,4.12,6.76,6.76,0,0,1-4.41,1.55H327a4.49,4.49,0,0,1-3.78-1.55,4.83,4.83,0,0,1-.68-4.12l1-4.88h12.08l-1.26,6h7.56L344.32,438h-14a4.57,4.57,0,0,1-3.81-1.54,4.69,4.69,0,0,1-.65-4.13l1.89-9a7.19,7.19,0,0,1,2.46-4.12,6.76,6.76,0,0,1,4.41-1.55H355a4.2,4.2,0,0,1,4.47,5.62l-1,4.88H346.42l1.26-6h-7.56l-2.41,11.34Z"/><path class="cls-5" d="M63.08,228.32s27-20,35-22,10.5,31,10.5,31l-1.5,14-32,2"/><path class="cls-8" d="M208.91,278s1.34,7.67-5.33,12c0,0,8-4.66,11-2s-.33,11.34-8.33,10.67-19-22-19-22l4.33-12,4.33-7.67"/><path class="cls-5" d="M104.58,197.32l80.5,2.5s49.5,14.5,54.5,39-18,37-18,37l-16-8.5-11.5-12.5,7-8.5-16-10s27.14,75.65,29.81,135c0,0-12.31-4-26.64-8,0,0-4.67-45.5-68.67-30,0,0-.5,16.5,2.5,31.5,0,0-11,6.5-25.5-2.5C96.58,362.32,58.58,288.32,104.58,197.32Z"/><path class="cls-2" d="M452.76,208.75c0-1.19-.09-2.53-.07-2.75.12-.69.19-1.15-5.24-2.13h0l-2-.32v0a22.16,22.16,0,0,0-2.51-.21c-.43,0-1.43,0-1.56.79-.05.23-.53,1.49-.95,2.61-.69,1.83-1.47,3.91-1.74,4.93a43.27,43.27,0,0,0-.76,4.27h-.06l-11.43,70.19h0l-.12.76-.23,1.41h0l-.85,5.26c0,.29-.14,2.86,1.24,4.26a3.49,3.49,0,0,1,.82,2.45h0l-1.18,7.26c-.18,1.09.13,2.27,1.21,2.44l.42.07c0,3,.52,9.54,4.25.69l.5.08a.93.93,0,0,0,.23,0c1,0,1.56-1.05,1.7-1.95l1.18-7.21a3.5,3.5,0,0,1,1.56-2.11c1.75-.89,2.46-3.37,2.55-3.72l1.2-7.36h0l11.43-70.18-.14,0a41.73,41.73,0,0,0,.64-4.3C452.92,212.93,452.83,210.71,452.76,208.75Z"/><path class="cls-6" d="M202.06,290.35c-37.14-14.91-61.48-49-61.48-49,13.33,13,45.33,20.33,45.33,20.33C184.25,252,176.58,226,176.58,226c11.33,3.67,26.67,14,26.67,14,9.66-3.66,25-.33,25-.33-15.67,2.34-15.34,17.67-15.34,17.67l2.81,15.39-10.14-5.39-11.5-12.5,7-8.5-16-10A454.63,454.63,0,0,1,202.06,290.35Z"/><path class="cls-9" d="M196.25,251.32s17.33-2.67,27,23.66c0,0-3.67,5.67-13,5a58.85,58.85,0,0,0-17.67-23A4.76,4.76,0,0,1,196.25,251.32Z"/><path class="cls-4" d="M201.25,251s1.33-6.66,11.66-8.66c0,0-11.33-3-16,6.66"/><path class="cls-4" d="M135.91,333s29.34-4,46,.67c0,0-20.66-10-45.33-5.67"/><path class="cls-9" d="M81.89,294.55l.69-.9c75.79,8.42,114.8-1.83,119.51-3.19q1.4,5.58,2.7,11.47l-.54,1.05c-44.9,20.32-118.15,13.58-120.6,13.34A192,192,0,0,1,81.89,294.55Z"/><path class="cls-10" d="M118.08,197.82s14,59.5,82,91.5"/><path class="cls-10" d="M151.58,198.65a71.6,71.6,0,0,1-16,35.33"/><path class="cls-6" d="M160.25,201s-5.67,26.67-22.34,36.34c0,0-22-36.67-17.33-40.34,5,1.34,42.33,1.34,42.33,1.34"/><path class="cls-11" d="M218.83,219.32c33.75,22.25,8,47.5,8,47.5l-2,2s-2.25-6.5-3-7l-.75-.5S246.83,244.07,218.83,219.32Z"/><path class="cls-11" d="M107.91,201.32s-22,39-21.66,88.66h6.66S83.58,252.65,107.91,201.32Z"/><path class="cls-11" d="M188.91,288s-52.33-22.33-73-86.33C115.91,201.65,126.58,265.32,188.91,288Z"/><path class="cls-6" d="M108.58,366.65c6.67-6,2-36.33,2-36.33,44-23,78,6.75,78,6.75a23.51,23.51,0,0,0-12.67-2.42c15.67,6.33,27,26.33,27,26.33l1.11,1.59a24.77,24.77,0,0,1-15.77.75s-4.67-45.5-68.67-30c0,0-.5,16.5,2.5,31.5a22.34,22.34,0,0,1-13.65,2C108.48,366.76,108.52,366.7,108.58,366.65Z"/><path class="cls-12" d="M211.83,257.57s-5.25,10.5-2.5,16.5S192.58,257,192.58,257l2.75-4.91"/><path class="cls-12" d="M119.58,298.82s22.75,4.5,56.5-.25c0,0,5.75-1,7.5,1s1.75,5.25.5,6-34,11.5-70.5,10c0,0,47.75,5.5,89.5-14.5l-2.25-10s-44.75,7.75-83.25,5.5"/><path class="cls-13" d="M356.9,53.4a103.38,103.38,0,0,0-33.17,12.34c-51.86,29.37-77.47,68.73-94.34,60s-11.87,12.49-11.87,12.49,26.24,16.87,50,5.63L361.85,102s1.4-10.17,10.39-20.15A114.94,114.94,0,0,1,356.9,53.4Z"/><path class="cls-13" d="M220.64,140.72s-.62,19.37,21.87,18.12,46.86-26.24,75-20.62,31.24,19.37,31.24,19.37a148.27,148.27,0,0,1,20-18.74c10.55-8.23,28.74-22.5,45.61-11.25,0,0-18.42-35.61-67.48-35.61-50.61,0-69,31.21-91.22,40.61-16.25,6.87-36.86-5-36.86-5"/><path class="cls-5" d="M228.76,120.1s-7.5,97.53-94.35,96.23c-83.1-1.25-80.6-93.73-80.6-99.35s95.6-35.62,95.6-35.62l17.49,3.75"/><path class="cls-8" d="M204.81,112s3.33,41.24-49.57,55.82a45,45,0,0,1-17.08-3.33c-9.58-3.75-26.66-12.92-47.07,4.58,0,0-24.57,5.41-32.49-47.91C58.6,121.14,91.93,78.66,204.81,112Z"/><path class="cls-5" d="M51.52,98.23C51.94,69.08,73.6,3.68,145.24,6.59c72,2.93,84.56,82.06,84.56,82.06s1.67,8.75,2.09,15,9.58,7.08,9.16,15.83-15.41,17.91-15.41,17.91l2.08-9.16s-37.49-29.16-101.64-24.58-71.23,24.58-71.23,24.58v7.91s-12.91-6.66-10.83-15S51.52,102.82,51.52,98.23Z"/><path class="cls-4" d="M239.38,117.4s-.86-7-20-14.79a312.46,312.46,0,0,0-45-14.06s47.49,5,60.92,19.68"/><path class="cls-4" d="M46.94,114.06s4.17-17.91,45.82-20.82c0,0-32.91-.42-41.65,7.08"/><path class="cls-4" d="M175.34,170.09s-22.49,2.19-35.62-3.44l1.57-1.87S160.66,169.46,175.34,170.09Z"/><path class="cls-4" d="M101.61,163.53s-8.75,5-13.12,12.81c0,0-.62-6.56,6.87-12.19"/><path class="cls-4" d="M215.64,122s-6.87,22.49-22.49,35c0,0,14.37-17.5,16.87-37.49"/><path class="cls-4" d="M338.42,129.48s-17.5-10.31-55.92,7.49S231,154.78,225,144.78l.94-3.43s3.44,10,24.06,4.37,46.86-20.26,55.29-21.56C317.49,122.29,324.36,123.23,338.42,129.48Z"/><path class="cls-4" d="M383.41,62.31s-31.87-6.88-69.67,16.24-54.67,50.61-73.42,55.61l-3.75-1.25s8.13-2.81,25.31-15.93,44.86-40.76,67.79-50C358.41,55.43,383.41,62.31,383.41,62.31Z"/><path class="cls-14" d="M126,126.24s-2.82,11.23-2.74,12,12.41,18.63,29,14.76,20.89-11,23-17.23,1.62-21.52.12-23.58-7.28-5-8-5-11.13,1.11-17.05,3.41S130.09,121,126,126.24Z"/><path d="M123.29,138.19s.33-8.42,2.62-12.85,23-18.43,41.9-19.22c0,0,7,2.82,7.82,5.13s.7,7.36.7,7.36-.75-5.4-2-6.23-5.22-3.79-6.85-4.24-19.6.11-40.4,18C127.12,126.17,123.76,133.63,123.29,138.19Z"/><path class="cls-15" d="M150.41,110.54a93.3,93.3,0,0,0-12.86,6.75,25.13,25.13,0,0,0-.15,12.52c2.52,10.83,11,18.12,18.91,16.27s12.3-12.12,9.77-23c-1.49-6.42-5.08-11.59-9.4-14.36A44.31,44.31,0,0,0,150.41,110.54Z"/><path d="M125.8,122.24l23.42-16.43L169.58,103l9,2.63s.62,8.75.91,12.07c2.71,30.95-20.95,33.62-20.95,33.62,22.66-7.67,15.79-38.26,15.79-38.26l-3.89-4.66S150.27,110.3,134,120.22a88.56,88.56,0,0,0-8.85,6.06A35.84,35.84,0,0,0,125.8,122.24Z"/><path class="cls-16" d="M133.66,116.67s19.55-15.24,18.59-15,15.66,3,15.66,3"/><path class="cls-17" d="M159.26,125.18c1.26,5.44-.89,10.59-4.8,11.5s-8.12-2.76-9.39-8.2.88-10.59,4.8-11.5S158,119.74,159.26,125.18Z"/><path class="cls-18" d="M148.5,140.11c.68,2.92-.74,5.74-3.16,6.3s-4.94-1.34-5.62-4.25.74-5.74,3.16-6.31S147.82,137.2,148.5,140.11Z"/><path class="cls-19" d="M106.51,126.8s3.13,9.64,3.14,10.31S103,155.94,91,155.21s-15.66-6.43-17.78-11.7-3.37-19.12-2.54-21.22,4.54-5.69,5-5.83,7.85-.85,12.2.25S103.14,122.78,106.51,126.8Z"/><path d="M109.65,137.11s-1.11-7.53-3.15-11.14-17.89-12.79-31.13-10.36c0,0-4.58,3.7-4.89,5.92a35.44,35.44,0,0,0,.28,6.73s0-5,.71-5.93,3.23-4.28,4.32-5,13.63-3.14,29.95,9.55C105.74,126.92,108.86,133.08,109.65,137.11Z"/><path class="cls-15" d="M87.93,116.71a53.14,53.14,0,0,1,9.64,3.94A28.83,28.83,0,0,1,99,131.89c-.62,10.18-5.74,18.15-11.44,17.8s-9.81-8.88-9.19-19.06c.37-6,2.32-11.28,5-14.49A23.17,23.17,0,0,1,87.93,116.71Z"/><path d="M73.63,111.85l14.63.4,17.13,10.39a6.74,6.74,0,0,0,1.24,3.69,57.36,57.36,0,0,0-6.27-3.64c-12.36-6.23-26.59-4.61-26.59-4.61l-2.22,4.84s-.94,6.91.06,10.45c0,0-2.82-2.41-3.15-5.42s-.83-12.24-.83-12.24Z"/><path class="cls-16" d="M79.91,111.1a5.58,5.58,0,0,0,4.86-2.47c6.78,4.81,15.44,10.82,15.44,10.82L79.91,113s-.18-.78-.46-1.9Z"/><polyline class="cls-16" points="73.63 111.85 61.02 117.38 68.48 120.82"/><path class="cls-20" d="M83.31,131.35c-.31,5.11,1.72,9.39,4.53,9.57s5.36-3.83,5.67-8.95-1.72-9.39-4.53-9.56S83.62,126.24,83.31,131.35Z"/><path class="cls-18" d="M92.34,143c-.16,2.73,1.11,5,2.85,5.15s3.29-2,3.46-4.77-1.11-5-2.85-5.15S92.51,140.28,92.34,143Z"/><path class="cls-6" d="M226,141.35s6.41,2.81,22.13.47c23.5-3.5,69-42.5,96.5-9a61.38,61.38,0,0,0-43,.5c-23,9-46.64,24.55-59.07,25.52a22.31,22.31,0,0,1-18.93-7.52"/><path class="cls-6" d="M368.58,83.82s-52.5-8-95.5,30.5c0,0,54.5-61,116-51,0,0-37.5-15.5-72,4.5s-52.69,49.73-79,58.5c-1.5.5-7,6-7,6a29.49,29.49,0,0,0,23,1.5c12.5-4.5,58-51,106.5-41"/><path class="cls-6" d="M181.08,17.32s30,22.5,31.5,45.5S174.4,88.55,174.4,88.55s40.68,10.27,43.18,16.27-60.5.5-60.5.5,46,6.5,47.5,10-4,34.5-39,49c0,0,25-6.5,32-17.5,0,0-5.5,9.5-12,15.5,0,0,19-13.5,25.5-24.5s9.5,23-3.5,43l18.06-43.43s13.44-7.07,12.94-17.07-7.22-8.34-8-20-5-66-51-85"/><path class="cls-11" d="M115.08,163.32s-17,1.5-23,13,19-15,41.5-10C133.58,166.32,122.08,162.82,115.08,163.32Z"/><path class="cls-6" d="M44,121.14c2.09-8.33,7.5-18.32,7.5-22.91.26-18.06,8.68-50,32.07-71,0,.82-1.17,2.45-4,5.13-18.5,17.5-26.5,60-13.5,59.5s31,1.5,31,1.5c-43.5,3-45,29.5-45,29.5,7.5-6,19-8,19-8l-.53.69c-13.44,6.37-15.7,12.72-15.7,12.72V136l-.05.07C53.92,135.64,42,129.17,44,121.14Z"/><path class="cls-21" d="M185.25,110.32s10.33,2,10,14-12.34,32.66-33,42c0,0,39.33-14.67,42-48"/><path class="cls-21" d="M91.58,166s-10.67,3.67-18.67-14.66S64.25,121,64.25,121l-5,4S67.91,176.32,91.58,166Z"/><path class="cls-11" d="M137.08,211.82s-62,4-77-65.5C60.08,146.32,77.58,202.32,137.08,211.82Z"/><path class="cls-22" d="M124.58,136.32s5-6,8.5-8.5,24.33-14.93,43.25-9.21l-.7-7.36s-13-8.93-18.55-5.93-32,21-32,21"/><path class="cls-18" d="M155.75,119.65a2.17,2.17,0,1,0,2.16-2.17A2.17,2.17,0,0,0,155.75,119.65Z"/><path class="cls-18" d="M81.75,128a2.17,2.17,0,1,0,2.16-2.16A2.17,2.17,0,0,0,81.75,128Z"/><path class="cls-22" d="M105.74,126.92C98.57,118.52,77.25,116,77.25,116l-6.34,3.34V127s2-6,13.34-4,24.31,14,24.31,14a64.76,64.76,0,0,0-1.93-10.64"/><path class="cls-8" d="M415.55,251.8s7.5-18.5,12-18.5,7.5,7,8,9c0,0,10,1.5,12,3s5.5,23-2,24.5-22.5,1.5-35-7"/><path class="cls-5" d="M354.64,215.05a259.42,259.42,0,0,0,60.25,34.25s1.33,21.33-7.33,21.33c0,0-38-3.33-58.67-14.66"/><path class="cls-8" d="M278.31,285.38s-3.34,6.34-3,8c0,0-5.67-.66-8.67,4s7.33,13,15.67,4.67S296,281.38,296,281.38l-5-7.66"/><path class="cls-5" d="M354.64,215.05c2.16,6.75,7.93,18.91,9.41,31.25.75,6.25-3.75,13.75-3.75,13.75-3.66,7.67-3.33,8.67-7.66,16.33S350,288.72,350,288.72c5.34,19.66-5.33,41.66-11.66,54.66s-8,22.67-8,22.67a7.2,7.2,0,0,1-9,2.33l-1.67-44.66c-46,2.33-53,44.66-53,44.66-8.67,3-11.34-1.33-11.34-1.33,3.5-62,37.5-81.5,42-86.5s-8-32-8-32c-11,2.5-18,12.5-18,12.5,3,2.5,12.5,10,12.5,10-6,3-14,16.5-14,16.5-5-2-26.5-10.5-27.5-26s37.5-38,37.5-38S301,211.72,318,207.72C329,205.12,354.64,215.05,354.64,215.05Z"/><path class="cls-23" d="M343.8,259.05c10,7,16.5,1,16.5,1l3.75-5.75c-9.5,10.5-20,2.25-20,2.25s-11.77,7.57-22.5,9.25c-12.75,2-18.75-9.5-18.75-9.5s6,14.58,20.76,11.33C336.82,264.71,343.8,259.05,343.8,259.05Z"/><path class="cls-9" d="M298.3,276.55s37,11.5,51.75,3l3.5-5s3,1.75,3,3.75-1.24,10-.49,13.5-.25,5-3.75,5.25-37,4-61.5-9.83c0,0-4.42-2.09-2.67-4.34s2.5-2.75,3.16-5.08c1-3.44,6.34-3.75,6.34-3.75Z"/><path class="cls-4" d="M272.47,265.22a16.66,16.66,0,0,0-9.33-4.34s7.17-3,10.67,0"/><path class="cls-4" d="M321.55,321.55a98.37,98.37,0,0,0-35.75,4.75s15.75-1,21,1.5"/><path class="cls-9" d="M280.64,263.72s-14,4.66-20,23.66l14.66,4.34s8.34-16.67,15.67-20.34C291,271.38,288,267.72,280.64,263.72Z"/><path class="cls-4" d="M280.55,249.8s15-10,19.42.92c0,0-3-4-13.33-.34"/><path class="cls-6" d="M326,362.05c-1.66-4.33-2.67-43.67-2.67-43.67-31.33-3.33-49,14-49,14,7.67-3.33,12-3.33,12-3.33-20.33,7.33-25.66,39-25.66,39l-.91,1.29a15,15,0,0,0,6.91-1s7-42.33,53-44.66l1.67,44.66a7.2,7.2,0,0,0,9-2.33s.16-1,.59-2.68C329.9,364.09,327.3,365.51,326,362.05Z"/><path class="cls-6" d="M267.64,273.38c-1.05,4.46,3.88-4.28,9-8.05-2.12-1.69-4.17-3.34-5.3-4.28,0,0,7-10,18-12.5,0,0,8.71,18.81,9,27.94l0,.06s-.33-17.5-2.66-22.5,3-6.33,6.33-1c0,0-2.67-13.33-10.33-12.67s-22.34,16-22.34,16a33,33,0,0,0-10.66,6.34S269,267.72,267.64,273.38Z"/><path class="cls-24" d="M328.3,358.55s2.25-7.25,9-21.5,10.5-25.5,10.5-36.25c0,0-5,.75-6.5.5a50.5,50.5,0,0,1-2.25,21.25C335.3,333.55,329.05,350.3,328.3,358.55Z"/><path class="cls-24" d="M290.8,291.05c-29.75,25.25-32.25,72.5-32.25,72.5s8.25-49.5,34-70.75"/><path class="cls-24" d="M294.8,220.05c-37,18.5-48,35.75-48.5,41.5s14.75,17.25,14.75,17.25l1.25-3s-12.35-11-11.75-16.25C251.3,253.05,267.3,234.55,294.8,220.05Z"/><path class="cls-6" d="M331.8,297.3s-27.25-4.75-32.5-10.5c0,0,.25-4,2.25-4.5s25,6.25,44,1.25c0,0-44.5-2.5-47.75-8.5l-2.5-.25-4,5-2.75,6.5a113.68,113.68,0,0,0,34.75,10.75"/><path class="cls-5" d="M252.77,145.87s19.34,85.87,96.51,73.44c73.84-11.9,59.61-93.92,58.88-98.93s-89.75-19.31-89.75-19.31l-15.09,5.61"/><path class="cls-8" d="M273.05,135.53s2.38,37.15,51.38,43.27a40.34,40.34,0,0,0,14.78-5.18c8.05-4.59,22.06-15,42.51-2,0,0,22.59,1.63,22.72-46.88C404.44,124.71,369.25,91.2,273.05,135.53Z"/><path class="cls-5" d="M407.77,103.39C403.62,77.48,375.84,22.05,312.42,34,248.67,45.9,247.76,118,247.76,118s-.34,8,.09,13.62-7.61,7.55-6.1,15.29,16.05,14,16.05,14L254.75,153s29.61-30.84,87.32-35.08,66.63,12.64,66.63,12.64l1,7.05s10.64-7.61,7.7-14.76S408.37,107.47,407.77,103.39Z"/><path class="cls-4" d="M243,144.83s-.13-6.32,15.89-15.76a280.38,280.38,0,0,1,38.24-18.36s-41.64,10.62-51.7,25.44"/><path class="cls-4" d="M413.91,116.89s-6-15.41-43.51-12.6c0,0,29.25-4.64,38,.9"/><path class="cls-4" d="M306.83,183.45s20.32-1,31.27-7.68l-1.63-1.47S319.83,181,306.83,183.45Z"/><path class="cls-4" d="M371.64,168s8.44,3.31,13.34,9.7c0,0-.29-5.92-7.7-10"/><path class="cls-4" d="M264.7,145.83s9,19.14,24.57,28.24c0,0-15.07-13.71-19.89-31.19"/><polyline class="cls-16" points="389.85 118.39 401.8 121.67 395.6 125.71"/><path class="cls-6" d="M281.9,48.15s-23.8,23.93-22.15,44.6,37.34,18,37.34,18-34.9,14.43-36.34,20.09,53.94-7.4,53.94-7.4-40.12,11.76-41,15.07,8,30.2,41.09,38.57c0,0-23.11-2.54-30.77-11.43,0,0,6.13,7.75,12.7,12.25,0,0-18.68-9.56-25.89-18.51s-5.48,21.71,8.69,37.84L257.8,160.86s-12.89-4.56-13.74-13.53,5.35-8.36,4.53-18.85S244.47,69.06,283,46.17"/><path class="cls-11" d="M359.62,169.6s15.33-.87,22.17,8.59-18.87-10.89-38.26-3.52C343.53,174.67,353.32,170.06,359.62,169.6Z"/><path class="cls-6" d="M417.42,122.82c-2.94-7.15-9.05-15.35-9.65-19.43C405.2,87.34,393.55,60,370,44.29c.09.73,1.36,2,4.23,4C393,61.52,405.61,98.33,394,99.57s-27.41,5.36-27.41,5.36c39.13-3,43.9,20.43,43.9,20.43-7.46-4.37-18-4.66-18-4.66l.57.55c12.8,3.92,15.63,9.28,15.63,9.28l1,7,.06.06C410.49,137,420.25,129.71,417.42,122.82Z"/><path class="cls-21" d="M290.25,131.51s-8.94,3.12-7.08,13.76,15.22,27.49,34.83,33.12c0,0-36.93-8-43.63-37.29"/><path class="cls-21" d="M380.89,168.92s10,1.88,14.72-15.48,3.78-28.14,3.78-28.14l5,2.92S403.31,175.05,380.89,168.92Z"/><path class="cls-11" d="M346.32,215.64s55.73-4.48,60.07-68.32C406.39,147.32,398.07,199.46,346.32,215.64Z"/><path class="cls-4" d="M283.32,133.38s6.62,13.3,16.9,10.24,49.45,12.53,49.45,12.53,1.93-28.77-23-34.33C303.61,116.68,283.32,133.38,283.32,133.38Z"/><path class="cls-4" d="M300,151.73s-3.28,3.73-2.93,6.78c0,0,24.92,19.67,52.57-2.36"/><path class="cls-18" d="M296.26,139.07s44.81-32.6,53.41,17.08C349.67,156.15,303.64,184.63,296.26,139.07Z"/><path class="cls-25" d="M322.19,158.75a20,20,0,0,0,21.3-18.52c0-.47,0-.94,0-1.41-10.36-16-28.88-9.83-39.4-4.45a19.55,19.55,0,0,0-.46,3.08A20,20,0,0,0,322.19,158.75Z"/><path class="cls-4" d="M336.23,139.73a12.68,12.68,0,1,1-11.77-13.54A12.68,12.68,0,0,1,336.23,139.73Z"/><path class="cls-18" d="M338,135.45a3.52,3.52,0,1,1-3.26-3.75A3.51,3.51,0,0,1,338,135.45Z"/><path class="cls-18" d="M317.12,153.87A5.52,5.52,0,1,1,312,148,5.53,5.53,0,0,1,317.12,153.87Z"/><path class="cls-4" d="M398.07,129.27s-.49,11.12-6.57,10-23.15,15.59-23.15,15.59-7.46-22.14,4.38-29.41C383.67,118.69,398.07,129.27,398.07,129.27Z"/><path class="cls-4" d="M393.42,145.51s2.55,2.52,3.05,4.93c0,0-8.66,18.24-28.12,4.39"/><path class="cls-18" d="M392.55,135.23s-30.83-20-24.2,19.6C368.35,154.83,398.9,171.52,392.55,135.23Z"/><path class="cls-25" d="M389.72,140.59a18,18,0,0,0,0-6.94c-7.42-3.82-26.81-11.06-21.42,21.18l0,0A18.19,18.19,0,0,0,389.72,140.59Z"/><path class="cls-4" d="M382.09,139.05a10.4,10.4,0,0,0-2.23-8.76c-6.51-2.48-14,1.64-12.41,16.12a10.39,10.39,0,0,0,14.64-7.36Z"/><path class="cls-18" d="M383.31,144.48a3.83,3.83,0,1,1-3-4.51A3.85,3.85,0,0,1,383.31,144.48Z"/><path class="cls-9" d="M399.05,238.3s-3.5,19.5-11.5,32.5c0,0,19.5,1,23-1.5,0,0,5.5-6.5,5.5-23Z"/><path class="cls-6" d="M362.3,222.55s5.59,11.25,9.25,20.25,8.34,14.17,20,19.17l-4.33,5.66-25.33-6.33s4.83-11,2.16-17-7.5-18.67-6.5-24"/><path class="cls-6" d="M395.89,255.63s-.67,5.67,2.33,7.67,13.67,2.67,16-4.67,1,11.67-5,11.34-18.67-.67-18.67-.67"/><path d="M388.46,349.75l-1.59,5.93q-1.15,4.29-2.26,8.32a24.13,24.13,0,0,0-4.13-.34,24.88,24.88,0,0,0-15.61,5.52c-5.65-4.27-10.77-6.31-15.73-6.31a24,24,0,0,0-7.35,1.08H312l0,.06a24.91,24.91,0,0,0-19.6,5c-3.58-3.47-8.74-5.36-15.18-5.36a28.41,28.41,0,0,0-18.14,6.5,17.13,17.13,0,0,0-11.22-6.22c.42-1,.84-1.92,1.27-2.87l5.17-11.32H220.37l-1.57,5.95c-1.06,4-2.09,7.8-3.1,11.43A22.51,22.51,0,0,0,203,363.66a28.25,28.25,0,0,0-8.69,1.34l.53-1.77-7.19.28c.36-.82.72-1.63,1.09-2.44l5.16-11.32h-34l-.74,2.82c-.27-.17-.55-.33-.83-.48a20,20,0,0,0-9.62-2.34,22.37,22.37,0,0,0-9.6,2.12c-7.47,3.48-8.28,9.48-8.28,11.9a13.4,13.4,0,0,0,.14,1.81,16.91,16.91,0,0,0-5.06-1.66c.41-1,.84-2.08,1.26-3.1l4.58-11.07H119.4l1.52-2.24H54.87l-1.14,3.89c-.2-.73-.41-1.44-.64-2.14-5.41-16.95-15.75-20.51-23.47-20.51-7.35,0-17.55,2.87-24.39,16.54l13.68,8.21a3.32,3.32,0,0,1-1.21,1.09,8.69,8.69,0,0,1,2.8-.3s1.5.62,3.54,4.84A39,39,0,0,1,27.27,369a88.8,88.8,0,0,1,1.08,11.42c.08,1.46.11,2.67.11,3.62a58.34,58.34,0,0,1-3.92,21.36l-4.29,10.92H172.6l1.16-6.61c.19-1.07.4-2.12.6-3.18a19.59,19.59,0,0,0,3.39,4.61,21.17,21.17,0,0,0,15.41,6,29.15,29.15,0,0,0,7-.83h31.93a22.72,22.72,0,0,0,3.4.25,24.72,24.72,0,0,0,16.16-5.87c.12.13.22.26.34.38a21.09,21.09,0,0,0,15.46,6.07,28.81,28.81,0,0,0,18-6.1,18.73,18.73,0,0,0,13.78,5.52,23,23,0,0,0,3.42-.25h43.25l.36-1.19.15,0,1.49-5.27c1.77-6.2,3.2-10.63,4.33-13.79a21.63,21.63,0,0,0,4.73,13.72,18,18,0,0,0,10.48,6.35l-.08.2h1.18a21.72,21.72,0,0,0,3.37.25,23.32,23.32,0,0,0,3.44-.25h25.75l1.18-6.6c.09-.5.2-1,.29-1.51l.38-1.95a200.85,200.85,0,0,1,14.26-45.17l5.18-11.33Z"/><path class="cls-8" d="M74.38,224.1S70.58,203.32,64.24,206c-5.67,2.38-9,15.15-2.69,33.53"/><path class="cls-26" d="M105.87,355.51a224,224,0,0,0-26.36,52.8H63a214.79,214.79,0,0,0,2.49-31.42q-8,16.35-14.53,31.42H32A65.78,65.78,0,0,0,36.46,384c0-1.08,0-2.42-.12-4a102.12,102.12,0,0,0-1.2-12.49,46.72,46.72,0,0,0-3.91-11.87q-4.52-9.34-10.7-9.34t-8.14,2.57q6.06-12.12,17.23-12.12t15.85,14.94q3.15,9.84,3.16,24,0,5.26-.42,11.25a179.15,179.15,0,0,0,12.66-31.47h15.9l0,31.47A173.09,173.09,0,0,0,89.1,355.51Z"/><path class="cls-26" d="M130.44,378.59q0,5.15-2.62,15-1.16,4.4-4.44,14.73H112.46l6.33-20.87a8.4,8.4,0,0,0,.4-2.29q0-3.19-3.74-3.2-4.44,0-6.1,5.07a175.72,175.72,0,0,0-5.06,21.29H89.05q6.36-16.44,15.36-50.56h15.36q-3.4,8.22-6.35,16.69a13.17,13.17,0,0,1,8.76-2.82Q130.43,371.62,130.44,378.59Z"/><path class="cls-26" d="M152.83,372l-11,36.36H127.86l11-36.36Zm4.8-8.14q0,2.87-3.41,4.61a12.74,12.74,0,0,1-5.93,1.41,13.36,13.36,0,0,1-6.06-1.41q-3.4-1.69-3.41-4.65t3.66-4.65a14.43,14.43,0,0,1,6.22-1.37,12,12,0,0,1,5.81,1.37Q157.63,360.83,157.63,363.81Z"/><path class="cls-26" d="M183.9,371.66l-3.44,11.46c-2.94-.13-5.77-.24-8.51-.34a220.51,220.51,0,0,0-6.06,25.53H150.65q3.78-9.68,8.43-25.53-4.37.14-8.43.34l3.49-11.46c2.57.14,5.27.23,8.09.29q1.83-6.65,3.82-14.2h15.36q-3.19,7-5.81,14.2Q179.58,371.83,183.9,371.66Z"/><path class="cls-26" d="M215.86,384.82a65.7,65.7,0,0,1-.46,6.72H191.46a6.48,6.48,0,0,0-.34,2.2,3.74,3.74,0,0,0,1.87,3.2,6.52,6.52,0,0,0,3.69,1.12q3.66,0,6.69-3.57h10.46a24.23,24.23,0,0,1-8.14,10.5,20.63,20.63,0,0,1-12.53,4.15,13.14,13.14,0,0,1-9.74-3.65q-3.63-3.66-3.63-9.8,0-9.09,7.06-16.56t16.1-7.47Q215.87,371.66,215.86,384.82Zm-9.34.95q-.37-4.61-5.06-4.61-3.9,0-7.56,4.61Z"/><path class="cls-26" d="M255.42,384.61a26.25,26.25,0,0,1-5.36,16.15q-5.85,7.8-14.61,7.8-5.47,0-8.46-3.57l-.63,3.32H211.13q6.35-16.44,15.4-50.56h15.32q-3.66,8-6.56,16.32a16,16,0,0,1,8.75-2.41Q255.43,371.66,255.42,384.61Zm-11.67.69c0-2.9-1.42-4.34-4.27-4.34a7.06,7.06,0,0,0-5.36,2.56,8.26,8.26,0,0,0-2.32,5.63q0,4.55,4.53,4.55a6.75,6.75,0,0,0,5.39-2.65A8.77,8.77,0,0,0,243.75,385.3Z"/><path class="cls-26" d="M290.12,384.48a25.2,25.2,0,0,1-6.31,17.15,21,21,0,0,1-16.4,7.51q-6.14,0-9.75-3.67t-3.61-9.82q0-9,7.08-16.52t16.08-7.47Q290.13,371.66,290.12,384.48Zm-9.51.82c0-2.9-1.42-4.34-4.27-4.34a7.13,7.13,0,0,0-5.38,2.56,8.19,8.19,0,0,0-2.34,5.63q0,4.55,4.52,4.55a6.68,6.68,0,0,0,5.4-2.65A8.7,8.7,0,0,0,280.61,385.3Z"/><path class="cls-26" d="M331.83,372a257.19,257.19,0,0,0-11.08,36.36h-13.9l.62-2a16.59,16.59,0,0,1-8.26,2.28,10.69,10.69,0,0,1-8.76-3.86,14.16,14.16,0,0,1-2.95-9.3,25.22,25.22,0,0,1,5.73-16q6.15-7.76,14.57-7.76,6.18,0,9,3.94l1.12-3.65ZM312.78,385.3c0-2.9-1.42-4.34-4.27-4.34a7.06,7.06,0,0,0-5.36,2.56,8.21,8.21,0,0,0-2.32,5.63q0,4.55,4.52,4.55a6.77,6.77,0,0,0,5.4-2.65A8.82,8.82,0,0,0,312.78,385.3Z"/><path class="cls-26" d="M366.45,381.21Q364.05,380,358,380a12,12,0,0,0-8,2.74q-3.57,3-9.79,24.91h0l-.2.66H326l11-36.36h6.15a15,15,0,0,1,5.93-1.08Q356.07,370.87,366.45,381.21Z"/><path class="cls-26" d="M409.91,357.75a209.39,209.39,0,0,0-15.52,50.56H379.15l.75-1.87a16.62,16.62,0,0,1-8,2.12,10.69,10.69,0,0,1-8.76-3.86,14.16,14.16,0,0,1-2.95-9.3,25.22,25.22,0,0,1,5.73-16q6.15-7.76,14.57-7.76,6.31,0,9.13,4.11,2.37-8.26,5-18ZM385.46,385.3c0-2.9-1.42-4.34-4.27-4.34a7.06,7.06,0,0,0-5.36,2.56,8.21,8.21,0,0,0-2.32,5.63q0,4.55,4.52,4.55a6.77,6.77,0,0,0,5.4-2.65A8.82,8.82,0,0,0,385.46,385.3Z"/><path class="cls-27" d="M183.9,371.66q-4.32.16-8.3.29,2.61-7.18,5.81-14.2H166.05q-2,7.56-3.82,14.2c-2.82-.06-5.52-.15-8.09-.29l-3.49,11.46q4.07-.21,8.43-.34c-.9,3.07-1.77,5.93-2.62,8.65q6.39.19,13,.25c.77-3,1.57-6,2.46-8.9,2.74.1,5.57.21,8.51.34Zm-61.72,0a13.17,13.17,0,0,0-8.76,2.82q2.94-8.47,6.35-16.69H104.41q-4.27,16.23-8,28.44c4.09.61,8.3,1.19,12.63,1.71.09-.29.18-.6.27-.88Q111,382,115.45,382q3.73,0,3.74,3.2a8.4,8.4,0,0,1-.4,2.29l-.45,1.5c3.4.35,6.87.66,10.4.95a52.28,52.28,0,0,0,1.7-11.3Q130.44,371.62,122.18,371.62Zm121.86,0a16,16,0,0,0-8.75,2.41q2.9-8.31,6.55-16.32H226.53q-5.07,19.13-9.3,32.7c5-.21,9.84-.43,14.61-.65,0-.21,0-.42,0-.65a8.21,8.21,0,0,1,2.32-5.63,7.06,7.06,0,0,1,5.36-2.56c2.85,0,4.27,1.44,4.27,4.34a8.86,8.86,0,0,1-.9,4l12.27-.58a29.09,29.09,0,0,0,.3-4.1Q255.42,371.67,244,371.66ZM52.79,377.4q5.33,1.38,11.1,2.7c.52-1.08,1-2.13,1.55-3.21q0,1.78-.06,3.54,5.49,1.23,11.35,2.38l0-27.3H60.87A171.44,171.44,0,0,1,52.79,377.4Zm264-1.8q-2.83-3.94-9-3.94-8.43,0-14.57,7.76a29,29,0,0,0-3.12,4.92q-.08-12.68-12.9-12.68-9,0-16.09,7.47a25.85,25.85,0,0,0-5.94,9.57l13.52-.65a8.48,8.48,0,0,1,2.26-4.53,7.13,7.13,0,0,1,5.38-2.56c2.85,0,4.27,1.44,4.27,4.34a9.27,9.27,0,0,1-.26,2.2q10.88-.51,20.92-.91a9.1,9.1,0,0,1,1.88-3.07,7.06,7.06,0,0,1,5.36-2.56c2.85,0,4.27,1.44,4.27,4.34a8.7,8.7,0,0,1,0,.89q7.31-.22,14.16-.35,2.25-6.94,4.93-13.89h-13.9Zm77.78-17.85q-2.61,9.76-5,18-2.82-4.11-9.13-4.11-8.43,0-14.57,7.76c-.19.24-.35.49-.54.74q-9.66-9.29-16.23-9.29a15,15,0,0,0-5.93,1.08h-6.15l-4.19,13.81c5.19,0,10.17,0,15,.06a10.68,10.68,0,0,1,2.15-3.08,12,12,0,0,1,8-2.74,28.73,28.73,0,0,1,7,.67,27.27,27.27,0,0,0-3.09,5.66q6.18.36,11.84.94a8.74,8.74,0,0,1,2.08-3.75,7.06,7.06,0,0,1,5.36-2.56c2.85,0,4.27,1.44,4.27,4.34a9.05,9.05,0,0,1-.67,3.47,119.42,119.42,0,0,1,13.21,3,203.1,203.1,0,0,1,11.91-34Zm-365-21q-11.17,0-17.23,12.12,1.83-2.56,8.14-2.57t10.7,9.34a46.72,46.72,0,0,1,3.91,11.87c.25,1.36.48,3.05.67,5.06,4,1.25,8.29,2.5,12.81,3.72,0-.19,0-.38,0-.56q0-14.21-3.16-24Q40.7,336.75,29.62,336.75ZM203,371.66q-9,0-16.1,7.47a24.63,24.63,0,0,0-6.68,12.52q7.54-.07,15.38-.35,10.23-.37,20-.78.35-3.56.35-5.7Q215.86,371.65,203,371.66Zm-9,14.11q3.66-4.61,7.56-4.61,4.68,0,5.06,4.61Zm-51.67-17.35a13.36,13.36,0,0,0,6.06,1.41,12.74,12.74,0,0,0,5.93-1.41q3.41-1.74,3.41-4.61t-3.12-4.69a12,12,0,0,0-5.81-1.37,14.43,14.43,0,0,0-6.22,1.37q-3.66,1.71-3.66,4.65T142.23,368.42ZM89.1,355.51a170.18,170.18,0,0,1-10.5,27.66q5.07,1,10.43,1.86a225.88,225.88,0,0,1,16.84-29.52ZM138.91,372l-5.56,18.3q6.69.48,13.67.82L152.83,372Z"/><path class="cls-28" d="M109.76,444.82l-.55-9.52H94.74l-4.62,9.52-.55-9.52h-12l1.1,18.55H90.7l6.72-13.91.79,13.91h12.07l9-18.55h-4.88Zm36.9-6.83H139.1l.57-2.69H127.59l-3.92,18.55h12.07l2.42-11.34h7.56l-2.42,11.34h12.08l3.92-18.55H147.23Zm209-2.69H326a3.8,3.8,0,0,0,.59,1.15,4.57,4.57,0,0,0,3.81,1.54h14l-2.41,11.34h-7.56l1.26-6H323.53l-1,4.88a4.83,4.83,0,0,0,.68,4.12,4.49,4.49,0,0,0,3.78,1.55h20.37a6.76,6.76,0,0,0,4.41-1.55,7.22,7.22,0,0,0,2.47-4.12l1.88-9A4.76,4.76,0,0,0,355.64,435.3ZM182.83,438h-7.5l.57-2.69H163.82l-3.93,18.55H172l2.41-11.34h3.41l1.74,11.34H191.6l-1.78-11.5a6.77,6.77,0,0,0,3.44-1.86,7.11,7.11,0,0,0,1.91-3.65l.33-1.54H183.41Zm49.46,15.86h12.07l3.93-18.55H236.21ZM219.06,438h-7.51l.57-2.69H200l-3.92,18.55h12.07l2.42-11.34H214l1.73,11.34h12.08L226,442.35a6.73,6.73,0,0,0,3.44-1.86,7.2,7.2,0,0,0,1.92-3.65l.32-1.54H219.63Zm89,0h-7.5l.57-2.69H289l-3.93,18.55h12.08l2.41-11.34H303l1.74,11.34h12.07L315,442.35a6.77,6.77,0,0,0,3.44-1.86,7.11,7.11,0,0,0,1.91-3.65l.33-1.54H308.62Zm-38.58,11.34H261.9l3-14H252.8l-2.71,12.88a4.67,4.67,0,0,0,.65,4.12,4.58,4.58,0,0,0,3.81,1.55h20.37a6.76,6.76,0,0,0,4.41-1.55,7.22,7.22,0,0,0,2.47-4.12l2.71-12.88H272.44Z"/><path class="cls-4" d="M427.75,308.78s-.44,13.88,4.73.77Z"/><path class="cls-29" d="M452.13,213.94c.11-1.81-.23-7.53-.15-8.06s-4.14-1.21-5.53-1.45h0l-.18,0-.25,0h0c-1.09-.16-3.85-.52-3.92-.09s-2.23,5.84-2.7,7.59-1,6.23-1,6.23l6,1,.79.12,6,1S452,215.75,452.13,213.94Z"/><path class="cls-4" d="M452.13,213.94c.11-1.81-.23-7.53-.15-8.06s-4.14-1.21-5.53-1.45h0l-.18,0-.25,0h0c-1.09-.16-3.85-.52-3.92-.09s-2.23,5.84-2.7,7.59-1,6.23-1,6.23l6,1,.79.12,6,1S452,215.75,452.13,213.94Z"/><path class="cls-30" d="M434.92,288.24l-2.71-.44L427,287,426,293.6s-.16,2.5,1,3.71a4.22,4.22,0,0,1,1,3.07l-1.18,7.26s-.24,1.48.62,1.62l1.23.2,2.71.44,1.23.2c.86.14,1.1-1.33,1.1-1.33l1.18-7.27a4.27,4.27,0,0,1,1.94-2.59c1.52-.76,2.16-3.18,2.16-3.18l1.09-6.65Z"/><rect class="cls-29" x="403.29" y="246.69" width="71.87" height="13.22" transform="matrix(0.16, -0.99, 0.99, 0.16, 118.56, 646.05)"/><rect class="cls-4" x="403.29" y="246.69" width="71.87" height="13.22" transform="matrix(0.16, -0.99, 0.99, 0.16, 118.56, 646.05)"/><rect class="cls-31" x="435.93" y="218.93" width="15.62" height="13.22" transform="translate(149.77 627.24) rotate(-80.74)"/><path class="cls-4" d="M94,287.14s6.78,12.11,4.44-1.78Z"/><path class="cls-29" d="M65.93,193.31c-.84-1.6-4.09-6.32-4.29-6.83s-4.17,1.11-5.48,1.62h0l-.17.07-.24.1h0c-1,.43-3.57,1.54-3.41,1.94s1.11,6.16,1.61,7.9S56.29,204,56.29,204l5.62-2.24.74-.3,5.62-2.25S66.76,194.92,65.93,193.31Z"/><path class="cls-4" d="M65.93,193.31c-.84-1.6-4.09-6.32-4.29-6.83s-4.17,1.11-5.48,1.62h0l-.17.07-.24.1h0c-1,.43-3.57,1.54-3.41,1.94s1.11,6.16,1.61,7.9S56.29,204,56.29,204l5.62-2.24.74-.3,5.62-2.25S66.76,194.92,65.93,193.31Z"/><path class="cls-30" d="M89.51,265.84l-2.54,1L82.1,268.8l2.51,6.26s1.15,2.22,2.8,2.64a4.2,4.2,0,0,1,2.45,2.1l2.73,6.84S93.15,288,94,287.7l1.16-.46,2.55-1,1.16-.46c.81-.33.25-1.72.25-1.72l-2.73-6.83a4.24,4.24,0,0,1,.32-3.22c.9-1.44.21-3.84.21-3.84l-2.5-6.26Z"/><rect class="cls-29" x="68.57" y="197.75" width="13.22" height="71.87" transform="translate(-81.42 44.64) rotate(-21.8)"/><rect class="cls-4" x="68.57" y="197.75" width="13.22" height="71.87" transform="translate(-81.42 44.64) rotate(-21.8)"/><rect class="cls-31" x="58.12" y="199.77" width="13.22" height="15.62" transform="translate(-72.47 38.89) rotate(-21.8)"/><path class="cls-8" d="M445.55,246.55s-9.25,2.5-9.5,3.75.25,17.5,1.25,19.25c0,0,1.31,2.59,7.59.42,4.33-1.5,5.13-8.33,4.83-12.84C449.22,249.47,449.56,245.3,445.55,246.55Z"/><path class="cls-8" d="M71.35,225s15.09-4,18.56,3.34,8.59,24.06,3.66,27.49-24.77,9.9-27.06,6.61-11.13-31.22-7.13-34.81S71.35,225,71.35,225Z"/><line class="cls-8" x1="92.18" y1="233.65" x2="75.58" y2="236.05"/><line class="cls-8" x1="93.94" y1="245.82" x2="77.79" y2="249.74"/><path class="cls-32" d="M347.8,118.38s3.25,2.5,3,5.5-3,5.5-3,5.5-11.25-9-13.25-9.5"/><path class="cls-32" d="M371.05,117.88s-8.5,2.75-8.5,4.5,2.25,7,2.25,7,11.75-8,14.75-9.25"/><path class="cls-32" d="M132.39,104s-7.83,3.5-9.17,5.66-.67,8.84-.67,8.84,11-10.84,19.67-12.67"/><path class="cls-32" d="M100.22,104.47s11.83,3.83,13.17,6.33,1,8.83,1,8.83-15.5-10-19.17-10.83"/><path class="cls-32" d="M128.22,124s-3.66,10-2.66,15,12,12.33,12,12.33S126.22,147,122.89,141s2.91-18.73,2.91-18.73"/><path class="cls-4" d="M75.79,117.37a22.52,22.52,0,0,0-4.18,16c1.28,9.26,5,17.93,15,21.6,0,0-8.67,0-14.67-9.67s-4.67-26.67-4.67-26.67"/><path class="cls-4" d="M102.89,124s6.66,11.33,5,16.66-3,6.34-3,6.34a24.14,24.14,0,0,0,4.76-9.86c1.24-5.81-4.26-14.47-4.26-14.47"/></g></g></svg>