<svg id="Layer_1" data-name="Layer 1" xmlns="http://www.w3.org/2000/svg" xmlns:xlink="http://www.w3.org/1999/xlink" viewBox="0 0 417.13 132.1"><defs><style>.cls-1{fill:#231f20;}.cls-2{fill:#f5f5f5;}.cls-3{fill:#ff893e;}.cls-4{fill:#fff;opacity:0.25;}.cls-5{fill:url(#linear-gradient);}</style><linearGradient id="linear-gradient" x1="211.68" y1="132.21" x2="211.68" y2="26.78" gradientUnits="userSpaceOnUse"><stop offset="0" stop-color="#fff"/><stop offset="1"/></linearGradient></defs><title>text-logo</title><path class="cls-1" d="M359.05,86a11.56,11.56,0,0,0-9.25-4.14H329.43a13.81,13.81,0,0,0-8.16,2.62,11.88,11.88,0,0,0-7.7-2.62H281.86l-.15.73a13.12,13.12,0,0,0-4.36-.73H257a13.64,13.64,0,0,0-1.57.1l0-.1H229.05l-.15.71a13.12,13.12,0,0,0-4.31-.71H192.87l-.15.73a13.12,13.12,0,0,0-4.36-.73H156.65l-.15.73a13.12,13.12,0,0,0-4.36-.73H113.25L110,88.72l-.4-6.85H63.81l3,50.23h42.65l.64-1.32-.28,1.32h135l.16-.73a13.1,13.1,0,0,0,4.35.73h20.37a13.5,13.5,0,0,0,1.57-.1l0,.1h48.52l0-.17a13.58,13.58,0,0,0,2,.17h20.37A13.84,13.84,0,0,0,351,129a14.28,14.28,0,0,0,4.86-8l1.9-9.08a12.87,12.87,0,0,0,.09-5.51H359L361.11,96A11.57,11.57,0,0,0,359.05,86Z"/><path class="cls-2" d="M105.05,125.1H93l-.78-13.91L85.46,125.1H73.39L71.24,88.87H83.31l1.58,27.2,6.77-14-.79-13.23H103l1.57,27.2,13.13-27.2h4.88Z"/><path class="cls-2" d="M150.14,125.1H138.07l2.41-11.34h-7.56l-2.41,11.34H118.43l6.46-30.56a7.25,7.25,0,0,1,2.47-4.12,6.76,6.76,0,0,1,4.41-1.55h20.37A4.6,4.6,0,0,1,156,90.42a4.68,4.68,0,0,1,.65,4.12ZM137.23,93.39l-3.36,15.85h7.56l3.36-15.85Z"/><path class="cls-2" d="M186.37,125.1H174.29l-1.73-11.34h-3.41l-2.42,11.34H154.66l7.66-36.23h26a4.49,4.49,0,0,1,3.78,1.55,4.71,4.71,0,0,1,.63,4.12l-2.83,13.55a7.2,7.2,0,0,1-1.92,3.65,6.73,6.73,0,0,1-3.44,1.86ZM173.45,93.39l-3.36,15.85h7.51L181,93.39Z"/><path class="cls-2" d="M222.59,125.1H210.52l-1.73-11.34h-3.42L203,125.1H190.88l7.67-36.23h26a4.52,4.52,0,0,1,3.78,1.55,4.77,4.77,0,0,1,.63,4.12l-2.84,13.55a7.11,7.11,0,0,1-1.91,3.65,6.73,6.73,0,0,1-3.44,1.86ZM209.68,93.39l-3.36,15.85h7.51l3.36-15.85Z"/><path class="cls-2" d="M239.13,125.1H227.05l7.67-36.23h12.07Z"/><path class="cls-2" d="M276.56,119.43a7.16,7.16,0,0,1-2.46,4.12,6.76,6.76,0,0,1-4.41,1.55H249.31a4.57,4.57,0,0,1-3.8-1.55,4.7,4.7,0,0,1-.66-4.12l5.25-24.89a7.25,7.25,0,0,1,2.47-4.12A6.76,6.76,0,0,1,257,88.87h20.37a4.6,4.6,0,0,1,3.81,1.55,4.68,4.68,0,0,1,.65,4.12Zm-14.12-26-5.77,27.19h7.55L270,93.39Z"/><path class="cls-2" d="M311.58,125.1H299.5l-1.73-11.34h-3.41L292,125.1H279.87l7.67-36.23h26a4.52,4.52,0,0,1,3.79,1.55,4.74,4.74,0,0,1,.62,4.12l-2.83,13.55a7.12,7.12,0,0,1-1.92,3.65,6.73,6.73,0,0,1-3.44,1.86ZM298.66,93.39l-3.36,15.85h7.51l3.36-15.85Z"/><path class="cls-2" d="M346.44,104.73a4.6,4.6,0,0,1,3.81,1.55,4.66,4.66,0,0,1,.65,4.12l-1.89,9a7.17,7.17,0,0,1-2.47,4.12,6.74,6.74,0,0,1-4.41,1.55H321.76a4.52,4.52,0,0,1-3.78-1.55,4.87,4.87,0,0,1-.68-4.12l1-4.88h12.07l-1.25,6h7.55l2.42-11.34h-14a4.54,4.54,0,0,1-3.8-1.55,4.7,4.7,0,0,1-.66-4.12l1.89-9A7.25,7.25,0,0,1,325,90.42a6.76,6.76,0,0,1,4.41-1.55H349.8a4.19,4.19,0,0,1,4.46,5.62l-1,4.88H341.19l1.26-6h-7.56l-2.42,11.34Z"/><path d="M383.22,21l-1.59,5.93c-.76,2.85-1.52,5.63-2.26,8.32a23.93,23.93,0,0,0-4.12-.34,24.86,24.86,0,0,0-15.61,5.52c-5.66-4.27-10.77-6.31-15.73-6.31a24,24,0,0,0-7.35,1.08H306.78l0,.06a23.74,23.74,0,0,0-4.19-.35,24.75,24.75,0,0,0-15.41,5.36c-3.59-3.47-8.75-5.36-15.19-5.36a28.35,28.35,0,0,0-18.13,6.5,17.14,17.14,0,0,0-11.23-6.22c.42-1,.85-1.92,1.28-2.87L249.05,21H215.14L213.56,27q-1.59,6-3.09,11.43a22.51,22.51,0,0,0-12.75-3.47,28.27,28.27,0,0,0-8.7,1.34l.53-1.77-7.18.28c.35-.82.72-1.63,1.09-2.44L188.61,21h-34l-.74,2.82c-.27-.17-.54-.33-.83-.48A19.92,19.92,0,0,0,143.47,21a22.39,22.39,0,0,0-9.61,2.12c-7.47,3.48-8.27,9.48-8.27,11.9a12.05,12.05,0,0,0,.14,1.81,17,17,0,0,0-5.07-1.66c.42-1,.84-2.08,1.27-3.11L126.51,21H114.17l1.51-2.24H49.63L48.5,22.65c-.2-.73-.42-1.44-.64-2.14C42.44,3.56,32.1,0,24.38,0,17,0,6.84,2.87,0,16.54l13.68,8.21a3.15,3.15,0,0,1-1.21,1.08,9.32,9.32,0,0,1,2.8-.29s1.49.62,3.53,4.84A38.67,38.67,0,0,1,22,40.24a92.68,92.68,0,0,1,1.08,11.42c.07,1.46.11,2.67.11,3.62A58,58,0,0,1,19.3,76.63L15,87.56H167.36L168.53,81c.19-1.07.39-2.12.6-3.18a19.55,19.55,0,0,0,3.38,4.61,21.17,21.17,0,0,0,15.41,6,29.23,29.23,0,0,0,7-.83h31.92a22.86,22.86,0,0,0,3.41.25,24.74,24.74,0,0,0,16.16-5.87c.12.13.22.26.34.38a21.09,21.09,0,0,0,15.46,6.07,28.8,28.8,0,0,0,18-6.1A18.73,18.73,0,0,0,294,87.81a23.19,23.19,0,0,0,3.43-.25h43.25l.36-1.19.14,0,1.5-5.27c1.77-6.2,3.19-10.63,4.32-13.79A21.75,21.75,0,0,0,351.7,81a18.07,18.07,0,0,0,10.48,6.35l-.08.2h1.18a23.31,23.31,0,0,0,6.81,0h25.76L397,81c.09-.5.2-1,.29-1.51l.38-2A200.83,200.83,0,0,1,412,32.33L417.13,21Z"/><path class="cls-3" d="M100.63,26.76a224.36,224.36,0,0,0-26.36,52.8H57.71A212.16,212.16,0,0,0,60.2,48.14q-8,16.35-14.53,31.42H26.75a65.78,65.78,0,0,0,4.48-24.28c0-1.08,0-2.42-.12-4A99.74,99.74,0,0,0,29.9,38.76,46.31,46.31,0,0,0,26,26.89q-4.53-9.34-10.71-9.34c-4.21,0-6.92.85-8.13,2.57Q13.22,8,24.38,8T40.24,22.94q3.15,9.84,3.15,24,0,5.27-.41,11.24A178.75,178.75,0,0,0,55.64,26.76H71.53l0,31.46A172,172,0,0,0,83.86,26.76Z"/><path class="cls-3" d="M125.2,49.84q0,5.14-2.61,15-1.17,4.41-4.44,14.74H107.22l6.34-20.87a8.81,8.81,0,0,0,.4-2.29q0-3.19-3.74-3.2c-3,0-5,1.69-6.1,5.07a177.33,177.33,0,0,0-5.07,21.29H83.82Q90.17,63.12,99.18,29h15.36q-3.41,8.22-6.35,16.69a13.16,13.16,0,0,1,8.75-2.82Q125.21,42.87,125.2,49.84Z"/><path class="cls-3" d="M147.59,43.2l-11,36.36H122.63l11-36.36Zm4.8-8.14q0,2.86-3.4,4.61a12.81,12.81,0,0,1-5.94,1.41A13.36,13.36,0,0,1,137,39.67q-3.41-1.7-3.4-4.65t3.65-4.65A14.47,14.47,0,0,1,143.47,29a12.07,12.07,0,0,1,5.81,1.37Q152.39,32.08,152.39,35.06Z"/><path class="cls-3" d="M178.67,42.91l-3.45,11.45L166.71,54a220,220,0,0,0-6.06,25.53H145.42q3.78-9.68,8.42-25.53-4.35.13-8.42.33l3.48-11.45c2.58.14,5.28.23,8.1.29q1.83-6.64,3.82-14.2h15.36q-3.21,7-5.82,14.2Q174.35,43.08,178.67,42.91Z"/><path class="cls-3" d="M210.63,56.07c0,1.63-.16,3.87-.46,6.72H186.22a6.74,6.74,0,0,0-.33,2.2,3.72,3.72,0,0,0,1.87,3.2,6.47,6.47,0,0,0,3.69,1.12q3.65,0,6.68-3.57h10.46a24.28,24.28,0,0,1-8.13,10.5,20.66,20.66,0,0,1-12.54,4.15,13.12,13.12,0,0,1-9.73-3.65q-3.63-3.66-3.63-9.8,0-9.09,7.05-16.56t16.11-7.47Q210.62,42.91,210.63,56.07Zm-9.34,1q-.37-4.6-5.07-4.61-3.9,0-7.55,4.61Z"/><path class="cls-3" d="M250.18,55.86A26.19,26.19,0,0,1,244.83,72q-5.85,7.81-14.61,7.81-5.47,0-8.47-3.57l-.62,3.32H205.9Q212.25,63.12,221.29,29h15.32q-3.65,8-6.56,16.32a16.05,16.05,0,0,1,8.76-2.41Q250.18,42.91,250.18,55.86Zm-11.66.69c0-2.9-1.43-4.34-4.27-4.34a7,7,0,0,0-5.36,2.56,8.21,8.21,0,0,0-2.32,5.63c0,3,1.5,4.55,4.52,4.55a6.77,6.77,0,0,0,5.4-2.65A8.82,8.82,0,0,0,238.52,56.55Z"/><path class="cls-3" d="M284.88,55.73a25.24,25.24,0,0,1-6.3,17.15,21,21,0,0,1-16.4,7.51q-6.15,0-9.75-3.67t-3.62-9.82q0-9,7.08-16.52T272,42.91Q284.88,42.91,284.88,55.73Zm-9.5.82c0-2.9-1.43-4.34-4.28-4.34a7.09,7.09,0,0,0-5.37,2.56,8.16,8.16,0,0,0-2.35,5.63q0,4.54,4.53,4.55a6.65,6.65,0,0,0,5.39-2.65A8.66,8.66,0,0,0,275.38,56.55Z"/><path class="cls-3" d="M326.6,43.2a255.89,255.89,0,0,0-11.08,36.36H301.61l.62-2A16.54,16.54,0,0,1,294,79.81,10.68,10.68,0,0,1,285.22,76a14.11,14.11,0,0,1-3-9.3,25.22,25.22,0,0,1,5.73-16q6.13-7.76,14.57-7.76,6.18,0,9,3.94l1.12-3.65ZM307.55,56.55c0-2.9-1.43-4.34-4.28-4.34a7,7,0,0,0-5.35,2.56,8.22,8.22,0,0,0-2.33,5.63q0,4.54,4.53,4.55a6.73,6.73,0,0,0,5.39-2.65A8.78,8.78,0,0,0,307.55,56.55Z"/><path class="cls-3" d="M361.22,52.45q-2.42-1.2-8.47-1.2a11.92,11.92,0,0,0-8,2.74Q341.18,57,335,78.9h0l-.2.66H320.79l11-36.36H338a15.07,15.07,0,0,1,5.94-1.08Q350.84,42.12,361.22,52.45Z"/><path class="cls-3" d="M404.68,29a209.26,209.26,0,0,0-15.53,50.56H373.92l.74-1.87a16.62,16.62,0,0,1-8,2.12A10.68,10.68,0,0,1,357.9,76a14.11,14.11,0,0,1-2.95-9.3,25.22,25.22,0,0,1,5.73-16q6.13-7.76,14.57-7.76,6.3,0,9.13,4.11,2.37-8.27,5-18ZM380.23,56.55c0-2.9-1.43-4.34-4.28-4.34a7,7,0,0,0-5.35,2.56,8.22,8.22,0,0,0-2.33,5.63q0,4.54,4.53,4.55a6.73,6.73,0,0,0,5.39-2.65A8.78,8.78,0,0,0,380.23,56.55Z"/><path class="cls-4" d="M178.67,42.91q-4.32.17-8.31.29Q173,36,176.18,29H160.82q-2,7.56-3.82,14.2c-2.82-.06-5.52-.15-8.1-.29l-3.48,11.45q4.07-.2,8.42-.33c-.89,3.07-1.76,5.93-2.61,8.65q6.39.2,13,.25c.76-3,1.57-6,2.45-8.9l8.51.33Zm-61.73,0a13.16,13.16,0,0,0-8.75,2.82q2.94-8.47,6.35-16.69H99.18q-4.29,16.23-8,28.44c4.1.61,8.3,1.19,12.63,1.71l.28-.88c1.1-3.38,3.14-5.07,6.1-5.07q3.73,0,3.74,3.2a8.81,8.81,0,0,1-.4,2.29l-.46,1.5q5.1.51,10.41,1a52.87,52.87,0,0,0,1.69-11.3Q125.2,42.86,116.94,42.87Zm121.87,0a16.05,16.05,0,0,0-8.76,2.41Q233,37,236.61,29H221.29Q216.22,48.13,212,61.7q7.44-.31,14.61-.65c0-.21,0-.42,0-.65a8.21,8.21,0,0,1,2.32-5.63,7,7,0,0,1,5.35-2.56c2.85,0,4.28,1.44,4.28,4.34a9,9,0,0,1-.9,4q6.24-.28,12.26-.59a27.44,27.44,0,0,0,.3-4.09Q250.18,42.9,238.81,42.91ZM47.55,48.65c3.55.92,7.26,1.82,11.1,2.69.52-1.07,1-2.12,1.55-3.2q0,1.77-.06,3.54,5.49,1.23,11.36,2.38l0-27.3H55.64A171.53,171.53,0,0,1,47.55,48.65Zm264-1.8q-2.82-3.94-9-3.94-8.43,0-14.57,7.76a28.36,28.36,0,0,0-3.12,4.92Q284.8,42.92,272,42.91q-9,0-16.08,7.47A25.85,25.85,0,0,0,250,60l13.52-.65a8.41,8.41,0,0,1,2.26-4.53,7.09,7.09,0,0,1,5.37-2.56c2.85,0,4.28,1.44,4.28,4.34a9.33,9.33,0,0,1-.26,2.2Q286,58.24,296,57.84a9.1,9.1,0,0,1,1.88-3.07,7,7,0,0,1,5.35-2.56c2.85,0,4.28,1.44,4.28,4.34a8.69,8.69,0,0,1-.05.89q7.32-.22,14.17-.35,2.25-6.95,4.93-13.89H312.69ZM389.36,29q-2.61,9.77-5,18-2.82-4.11-9.13-4.11-8.43,0-14.57,7.76c-.19.24-.36.49-.54.73q-9.66-9.27-16.23-9.28A15.07,15.07,0,0,0,338,43.2h-6.14L327.63,57c5.2,0,10.18,0,15,.06A10.68,10.68,0,0,1,344.75,54a11.92,11.92,0,0,1,8-2.74,28.67,28.67,0,0,1,7,.67,26.76,26.76,0,0,0-3.08,5.66q6.17.36,11.83.94a8.87,8.87,0,0,1,2.09-3.75A7,7,0,0,1,376,52.21c2.85,0,4.28,1.44,4.28,4.34a9.09,9.09,0,0,1-.67,3.47A119.93,119.93,0,0,1,392.77,63a202.21,202.21,0,0,1,11.91-34ZM24.38,8Q13.22,8,7.16,20.12c1.21-1.72,3.92-2.57,8.13-2.57S23,20.66,26,26.89a46.31,46.31,0,0,1,3.9,11.87c.26,1.36.48,3.05.68,5.06,4,1.25,8.29,2.5,12.81,3.72V47q0-14.2-3.15-24Q35.46,8,24.38,8ZM197.72,42.91q-9.06,0-16.11,7.47a24.61,24.61,0,0,0-6.67,12.52q7.55-.07,15.38-.35c6.82-.25,13.46-.51,20-.78q.34-3.56.35-5.7Q210.63,42.9,197.72,42.91ZM188.67,57q3.65-4.6,7.55-4.61,4.69,0,5.07,4.61ZM137,39.67a13.36,13.36,0,0,0,6.06,1.41A12.81,12.81,0,0,0,149,39.67q3.4-1.74,3.4-4.61t-3.11-4.69A12.07,12.07,0,0,0,143.47,29a14.47,14.47,0,0,0-6.23,1.37q-3.65,1.71-3.65,4.65T137,39.67ZM83.86,26.76a168.35,168.35,0,0,1-10.5,27.66c3.39.64,6.86,1.26,10.44,1.86a225.81,225.81,0,0,1,16.83-29.52ZM133.67,43.2l-5.56,18.3c4.46.32,9,.6,13.68.82l5.8-19.12Z"/><path class="cls-5" d="M104.52,116.07l-.55-9.52H89.5l-4.61,9.52-.56-9.52h-12l1.1,18.55H85.46l6.72-13.91L93,125.1h12.08l9-18.55h-4.88Zm36.91-6.83h-7.56l.57-2.69H122.35l-3.92,18.55h12.08l2.41-11.34h7.56l-2.41,11.34h12.07l3.92-18.55H142Zm209-2.69H320.72a3.56,3.56,0,0,0,.6,1.14,4.54,4.54,0,0,0,3.8,1.55h14l-2.42,11.34h-7.56l1.26-6H318.3l-1,4.88a4.87,4.87,0,0,0,.68,4.12,4.52,4.52,0,0,0,3.78,1.55h20.37a6.76,6.76,0,0,0,4.41-1.55,7.22,7.22,0,0,0,2.47-4.12l1.89-9A4.84,4.84,0,0,0,350.41,106.55ZM177.6,109.24h-7.51l.57-2.69H158.58l-3.92,18.55h12.07l2.42-11.34h3.41l1.73,11.34h12.08l-1.79-11.5a6.73,6.73,0,0,0,3.44-1.86,7.2,7.2,0,0,0,1.92-3.65l.32-1.54H178.17Zm49.45,15.86h12.08l3.92-18.55H231Zm-13.22-15.86h-7.51l.57-2.69H194.81l-3.93,18.55H203l2.41-11.34h3.42l1.73,11.34h12.07l-1.78-11.5a6.77,6.77,0,0,0,3.44-1.86,7.11,7.11,0,0,0,1.91-3.65l.33-1.54H214.4Zm89,0H295.3l.57-2.69H283.79l-3.92,18.55h12.07l2.42-11.34h3.41l1.73,11.34h12.08l-1.79-11.5a6.73,6.73,0,0,0,3.44-1.86,7.2,7.2,0,0,0,1.92-3.65l.32-1.54H303.38Zm-38.59,11.34h-7.56l3-14H247.57l-2.72,12.88a4.7,4.7,0,0,0,.66,4.12,4.57,4.57,0,0,0,3.8,1.55h20.37a6.76,6.76,0,0,0,4.41-1.55,7.17,7.17,0,0,0,2.47-4.12l2.72-12.88H267.2Z"/></svg>